<?xml version="1.0" encoding="UTF-8" standalone="no"?>
<!DOCTYPE svg PUBLIC "-//W3C//DTD SVG 1.1//EN"
 "http://www.w3.org/Graphics/SVG/1.1/DTD/svg11.dtd">
<!-- Generated by graphviz version 2.43.0 (0)
 -->
<!-- Title: G Pages: 1 -->
<svg width="666pt" height="741pt"
 viewBox="0.00 0.00 665.70 741.20" xmlns="http://www.w3.org/2000/svg" xmlns:xlink="http://www.w3.org/1999/xlink">
<g id="graph0" class="graph" transform="scale(1 1) rotate(0) translate(21.6 719.6)">
<title>G</title>
<polygon fill="white" stroke="transparent" points="-21.6,21.6 -21.6,-719.6 644.1,-719.6 644.1,21.6 -21.6,21.6"/>
<text text-anchor="middle" x="311.25" y="-677.2" font-family="Noto Sans CJK SC" font-size="21.00">KARL 候选筛选：每环境独立、只在采样阶段运行</text>
<!-- grasp -->
<g id="node1" class="node">
<title>grasp</title>
<path fill="#e7f1ff" stroke="#678099" d="M212.5,-667C212.5,-667 26.5,-667 26.5,-667 20.5,-667 14.5,-661 14.5,-655 14.5,-655 14.5,-619 14.5,-619 14.5,-613 20.5,-607 26.5,-607 26.5,-607 212.5,-607 212.5,-607 218.5,-607 224.5,-613 224.5,-619 224.5,-619 224.5,-655 224.5,-655 224.5,-661 218.5,-667 212.5,-667"/>
<text text-anchor="middle" x="119.5" y="-647.6" font-family="Noto Sans CJK SC" font-size="13.00">原 DQ 候选 [B,30,6]</text>
<text text-anchor="middle" x="119.5" y="-633.6" font-family="Noto Sans CJK SC" font-size="13.00">统一机器人基座系 / 米与弧度</text>
<text text-anchor="middle" x="119.5" y="-619.6" font-family="Noto Sans CJK SC" font-size="13.00">候选顺序在 episode 内保持不变</text>
</g>
<!-- quat -->
<g id="node3" class="node">
<title>quat</title>
<path fill="#ede8fa" stroke="#678099" d="M426.5,-570C426.5,-570 222.5,-570 222.5,-570 216.5,-570 210.5,-564 210.5,-558 210.5,-558 210.5,-522 210.5,-522 210.5,-516 216.5,-510 222.5,-510 222.5,-510 426.5,-510 426.5,-510 432.5,-510 438.5,-516 438.5,-522 438.5,-522 438.5,-558 438.5,-558 438.5,-564 432.5,-570 426.5,-570"/>
<text text-anchor="middle" x="324.5" y="-550.6" font-family="Noto Sans CJK SC" font-size="13.00">RPY → xyzw 四元数</text>
<text text-anchor="middle" x="324.5" y="-536.6" font-family="Noto Sans CJK SC" font-size="13.00">θᵢ = 2 acos(clamp(|qᵢ · qₑₑ|, 0, 1))</text>
<text text-anchor="middle" x="324.5" y="-522.6" font-family="Noto Sans CJK SC" font-size="13.00">处理 q 与 −q 等价、跨越 ±π</text>
</g>
<!-- grasp&#45;&gt;quat -->
<g id="edge1" class="edge">
<title>grasp&#45;&gt;quat</title>
<path fill="none" stroke="#65758b" d="M182.12,-606.98C205.16,-596.3 231.39,-584.15 255,-573.21"/>
<polygon fill="#65758b" stroke="#65758b" points="256.21,-575.54 261.91,-570.01 254,-570.78 256.21,-575.54"/>
</g>
<!-- target -->
<g id="node8" class="node">
<title>target</title>
<path fill="#fff0d9" stroke="#678099" d="M257,-157C257,-157 12,-157 12,-157 6,-157 0,-151 0,-145 0,-145 0,-109 0,-109 0,-103 6,-97 12,-97 12,-97 257,-97 257,-97 263,-97 269,-103 269,-109 269,-109 269,-145 269,-145 269,-151 263,-157 257,-157"/>
<text text-anchor="middle" x="134.5" y="-137.6" font-family="Noto Sans CJK SC" font-size="13.00">Gather 同一候选的 xyz 和 RPY</text>
<text text-anchor="middle" x="134.5" y="-123.6" font-family="Noto Sans CJK SC" font-size="13.00">输出真实候选 [B,6] + 新索引</text>
<text text-anchor="middle" x="134.5" y="-109.6" font-family="Noto Sans CJK SC" font-size="13.00">全部无效时输出当前末端位姿并置诊断标志</text>
</g>
<!-- grasp&#45;&gt;target -->
<g id="edge9" class="edge">
<title>grasp&#45;&gt;target</title>
<path fill="none" stroke="#65758b" d="M119.5,-606.98C119.5,-579.04 119.5,-541 119.5,-541 119.5,-541 119.5,-541 119.5,-223 119.5,-223 124.48,-191.49 128.7,-164.76"/>
<polygon fill="#65758b" stroke="#65758b" points="131.34,-164.84 129.92,-157.02 126.16,-164.02 131.34,-164.84"/>
<text text-anchor="middle" x="153.5" y="-372.2" font-family="Noto Sans CJK SC" font-size="11.00">保留物理候选</text>
</g>
<!-- ee -->
<g id="node2" class="node">
<title>ee</title>
<path fill="#e7f1ff" stroke="#678099" d="M455.5,-660C455.5,-660 261.5,-660 261.5,-660 255.5,-660 249.5,-654 249.5,-648 249.5,-648 249.5,-626 249.5,-626 249.5,-620 255.5,-614 261.5,-614 261.5,-614 455.5,-614 455.5,-614 461.5,-614 467.5,-620 467.5,-626 467.5,-626 467.5,-648 467.5,-648 467.5,-654 461.5,-660 455.5,-660"/>
<text text-anchor="middle" x="358.5" y="-640.6" font-family="Noto Sans CJK SC" font-size="13.00">实际末端位姿 [B,6]</text>
<text text-anchor="middle" x="358.5" y="-626.6" font-family="Noto Sans CJK SC" font-size="13.00">使用实际姿态，不是当前末端命令</text>
</g>
<!-- ee&#45;&gt;quat -->
<g id="edge2" class="edge">
<title>ee&#45;&gt;quat</title>
<path fill="none" stroke="#65758b" d="M350.61,-613.97C346.71,-603.06 341.9,-589.61 337.47,-577.25"/>
<polygon fill="#65758b" stroke="#65758b" points="339.92,-576.29 334.92,-570.12 334.98,-578.06 339.92,-576.29"/>
</g>
<!-- cost -->
<g id="node4" class="node">
<title>cost</title>
<path fill="#ede8fa" stroke="#678099" d="M479,-473C479,-473 170,-473 170,-473 164,-473 158,-467 158,-461 158,-461 158,-411 158,-411 158,-405 164,-399 170,-399 170,-399 479,-399 479,-399 485,-399 491,-405 491,-411 491,-411 491,-461 491,-461 491,-467 485,-473 479,-473"/>
<text text-anchor="middle" x="324.5" y="-453.6" font-family="Noto Sans CJK SC" font-size="13.00">默认 Jᵢ = θᵢ</text>
<text text-anchor="middle" x="324.5" y="-439.6" font-family="Noto Sans CJK SC" font-size="13.00">可选 &#45;&#45;karl_orientation_preference karl：Jᵢ = θᵢ + cᵢ</text>
<text text-anchor="middle" x="324.5" y="-425.6" font-family="Noto Sans CJK SC" font-size="13.00">cᵢ 为原 UR5 范围启发式 0/1（未经 DQ 标定）</text>
<text text-anchor="middle" x="324.5" y="-411.6" font-family="Noto Sans CJK SC" font-size="13.00">非有限候选的 Jᵢ = ∞</text>
</g>
<!-- quat&#45;&gt;cost -->
<g id="edge3" class="edge">
<title>quat&#45;&gt;cost</title>
<path fill="none" stroke="#65758b" d="M324.5,-509.77C324.5,-500.76 324.5,-490.63 324.5,-480.86"/>
<polygon fill="#65758b" stroke="#65758b" points="327.13,-480.63 324.5,-473.13 321.88,-480.63 327.13,-480.63"/>
</g>
<!-- argmin -->
<g id="node5" class="node">
<title>argmin</title>
<path fill="#ede8fa" stroke="#678099" d="M385.5,-344C385.5,-344 221.5,-344 221.5,-344 215.5,-344 209.5,-338 209.5,-332 209.5,-332 209.5,-310 209.5,-310 209.5,-304 215.5,-298 221.5,-298 221.5,-298 385.5,-298 385.5,-298 391.5,-298 397.5,-304 397.5,-310 397.5,-310 397.5,-332 397.5,-332 397.5,-338 391.5,-344 385.5,-344"/>
<text text-anchor="middle" x="303.5" y="-324.6" font-family="Noto Sans CJK SC" font-size="13.00">j_best = argminᵢ Jᵢ</text>
<text text-anchor="middle" x="303.5" y="-310.6" font-family="Noto Sans CJK SC" font-size="13.00">每步重新评分全部 30 个候选</text>
</g>
<!-- cost&#45;&gt;argmin -->
<g id="edge4" class="edge">
<title>cost&#45;&gt;argmin</title>
<path fill="none" stroke="#65758b" d="M317.8,-398.94C314.98,-383.78 311.75,-366.37 309.06,-351.94"/>
<polygon fill="#65758b" stroke="#65758b" points="311.59,-351.16 307.64,-344.27 306.43,-352.12 311.59,-351.16"/>
</g>
<!-- switch -->
<g id="node7" class="node">
<title>switch</title>
<path fill="#ede8fa" stroke="#678099" d="M417.5,-254C417.5,-254 189.5,-254 189.5,-254 183.5,-254 177.5,-248 177.5,-242 177.5,-242 177.5,-206 177.5,-206 177.5,-200 183.5,-194 189.5,-194 189.5,-194 417.5,-194 417.5,-194 423.5,-194 429.5,-200 429.5,-206 429.5,-206 429.5,-242 429.5,-242 429.5,-248 423.5,-254 417.5,-254"/>
<text text-anchor="middle" x="303.5" y="-234.6" font-family="Noto Sans CJK SC" font-size="13.00">若 J[j_prev] &gt; J[j_best] + π/6，则切换</text>
<text text-anchor="middle" x="303.5" y="-220.6" font-family="Noto Sans CJK SC" font-size="13.00">否则保留；等于门槛也保留</text>
<text text-anchor="middle" x="303.5" y="-206.6" font-family="Noto Sans CJK SC" font-size="13.00">门槛作用于总代价，不一定只是角度</text>
</g>
<!-- argmin&#45;&gt;switch -->
<g id="edge5" class="edge">
<title>argmin&#45;&gt;switch</title>
<path fill="none" stroke="#65758b" d="M303.5,-297.97C303.5,-287.27 303.5,-274.12 303.5,-261.94"/>
<polygon fill="#65758b" stroke="#65758b" points="306.13,-261.62 303.5,-254.12 300.88,-261.62 306.13,-261.62"/>
</g>
<!-- memory -->
<g id="node6" class="node">
<title>memory</title>
<path fill="#eef0f4" stroke="#678099" d="M610.5,-351C610.5,-351 434.5,-351 434.5,-351 428.5,-351 422.5,-345 422.5,-339 422.5,-339 422.5,-303 422.5,-303 422.5,-297 428.5,-291 434.5,-291 434.5,-291 610.5,-291 610.5,-291 616.5,-291 622.5,-297 622.5,-303 622.5,-303 622.5,-339 622.5,-339 622.5,-345 616.5,-351 610.5,-351"/>
<text text-anchor="middle" x="522.5" y="-331.6" font-family="Noto Sans CJK SC" font-size="13.00">持久索引 j_prev [B]</text>
<text text-anchor="middle" x="522.5" y="-317.6" font-family="Noto Sans CJK SC" font-size="13.00">初次 / 对应环境 reset 时设为 0</text>
<text text-anchor="middle" x="522.5" y="-303.6" font-family="Noto Sans CJK SC" font-size="13.00">其他环境保留历史索引</text>
</g>
<!-- memory&#45;&gt;switch -->
<g id="edge8" class="edge">
<title>memory&#45;&gt;switch</title>
<path fill="none" stroke="#65758b" d="M455.6,-290.98C430.88,-280.26 402.73,-268.04 377.42,-257.07"/>
<polygon fill="#65758b" stroke="#65758b" points="378.29,-254.58 370.36,-254.01 376.2,-259.4 378.29,-254.58"/>
</g>
<!-- switch&#45;&gt;target -->
<g id="edge6" class="edge">
<title>switch&#45;&gt;target</title>
<path fill="none" stroke="#65758b" d="M251.88,-193.98C233.21,-183.49 212,-171.57 192.8,-160.77"/>
<polygon fill="#65758b" stroke="#65758b" points="193.92,-158.39 186.1,-157.01 191.35,-162.97 193.92,-158.39"/>
</g>
<!-- target&#45;&gt;memory -->
<g id="edge10" class="edge">
<title>target&#45;&gt;memory</title>
<path fill="none" stroke="#65758b" stroke-dasharray="5,2" d="M269.15,-156.85C352.02,-174.61 442.5,-194 442.5,-194 442.5,-194 476.01,-246.78 499.66,-284.02"/>
<polygon fill="#65758b" stroke="#65758b" points="497.71,-285.85 503.95,-290.78 502.14,-283.04 497.71,-285.85"/>
<text text-anchor="middle" x="503.5" y="-221.2" font-family="Noto Sans CJK SC" font-size="11.00">更新索引</text>
</g>
<!-- buffer -->
<g id="node9" class="node">
<title>buffer</title>
<path fill="#eef0f4" stroke="#678099" d="M235,-60C235,-60 34,-60 34,-60 28,-60 22,-54 22,-48 22,-48 22,-12 22,-12 22,-6 28,0 34,0 34,0 235,0 235,0 241,0 247,-6 247,-12 247,-12 247,-48 247,-48 247,-54 241,-60 235,-60"/>
<text text-anchor="middle" x="134.5" y="-40.6" font-family="Noto Sans CJK SC" font-size="13.00">拼入 [B,1102]，Actor / Critic 共用</text>
<text text-anchor="middle" x="134.5" y="-26.6" font-family="Noto Sans CJK SC" font-size="13.00">PPO 缓冲区保存选中的位姿</text>
<text text-anchor="middle" x="134.5" y="-12.6" font-family="Noto Sans CJK SC" font-size="13.00">后续 minibatch 不访问筛选器</text>
</g>
<!-- target&#45;&gt;buffer -->
<g id="edge7" class="edge">
<title>target&#45;&gt;buffer</title>
<path fill="none" stroke="#65758b" d="M134.5,-96.98C134.5,-87.77 134.5,-77.45 134.5,-67.77"/>
<polygon fill="#65758b" stroke="#65758b" points="137.13,-67.67 134.5,-60.17 131.88,-67.67 137.13,-67.67"/>
</g>
</g>
</svg>
