<?xml version="1.0" encoding="UTF-8" standalone="no"?>
<!DOCTYPE svg PUBLIC "-//W3C//DTD SVG 1.1//EN"
 "http://www.w3.org/Graphics/SVG/1.1/DTD/svg11.dtd">
<!-- Generated by graphviz version 2.43.0 (0)
 -->
<!-- Title: G Pages: 1 -->
<svg width="650pt" height="649pt"
 viewBox="0.00 0.00 650.32 649.32" xmlns="http://www.w3.org/2000/svg" xmlns:xlink="http://www.w3.org/1999/xlink">
<g id="graph0" class="graph" transform="scale(1 1) rotate(0) translate(20.16 629.16)">
<title>G</title>
<polygon fill="white" stroke="transparent" points="-20.16,20.16 -20.16,-629.16 630.16,-629.16 630.16,20.16 -20.16,20.16"/>
<text text-anchor="middle" x="305" y="-589.8" font-family="Noto Sans CJK SC" font-size="19.00">高层调用的预训练底层Actor：hist_encoding=True，整个调用no_grad</text>
<!-- o -->
<g id="node1" class="node">
<title>o</title>
<path fill="#eaf3ff" stroke="#5385b9" stroke-width="1.2" d="M379.5,-580C379.5,-580 217.5,-580 217.5,-580 211.5,-580 205.5,-574 205.5,-568 205.5,-568 205.5,-552 205.5,-552 205.5,-546 211.5,-540 217.5,-540 217.5,-540 379.5,-540 379.5,-540 385.5,-540 391.5,-546 391.5,-552 391.5,-552 391.5,-568 391.5,-568 391.5,-574 385.5,-580 379.5,-580"/>
<text text-anchor="middle" x="298.5" y="-563.4" font-family="Noto Sans CJK SC" font-size="12.00">部署输入 [B,781]</text>
<text text-anchor="middle" x="298.5" y="-550.4" font-family="Noto Sans CJK SC" font-size="12.00">当前本体状态71 + 历史10×71</text>
</g>
<!-- p -->
<g id="node2" class="node">
<title>p</title>
<path fill="#eaf3ff" stroke="#5385b9" stroke-width="1.2" d="M259.5,-437.5C259.5,-437.5 151.5,-437.5 151.5,-437.5 145.5,-437.5 139.5,-431.5 139.5,-425.5 139.5,-425.5 139.5,-413.5 139.5,-413.5 139.5,-407.5 145.5,-401.5 151.5,-401.5 151.5,-401.5 259.5,-401.5 259.5,-401.5 265.5,-401.5 271.5,-407.5 271.5,-413.5 271.5,-413.5 271.5,-425.5 271.5,-425.5 271.5,-431.5 265.5,-437.5 259.5,-437.5"/>
<text text-anchor="middle" x="205.5" y="-416.4" font-family="Noto Sans CJK SC" font-size="12.00">当前本体状态 [B,71]</text>
</g>
<!-- o&#45;&gt;p -->
<g id="edge1" class="edge">
<title>o&#45;&gt;p</title>
<path fill="none" stroke="#65758b" d="M285.57,-539.74C268.75,-514.69 239.39,-470.96 221.28,-443.99"/>
<polygon fill="#65758b" stroke="#65758b" points="223.09,-442.29 217.15,-437.85 219.02,-445.03 223.09,-442.29"/>
</g>
<!-- h -->
<g id="node3" class="node">
<title>h</title>
<path fill="#eaf3ff" stroke="#5385b9" stroke-width="1.2" d="M404.5,-511C404.5,-511 328.5,-511 328.5,-511 322.5,-511 316.5,-505 316.5,-499 316.5,-499 316.5,-487 316.5,-487 316.5,-481 322.5,-475 328.5,-475 328.5,-475 404.5,-475 404.5,-475 410.5,-475 416.5,-481 416.5,-487 416.5,-487 416.5,-499 416.5,-499 416.5,-505 410.5,-511 404.5,-511"/>
<text text-anchor="middle" x="366.5" y="-489.9" font-family="Noto Sans CJK SC" font-size="12.00">历史 [B,10,71]</text>
</g>
<!-- o&#45;&gt;h -->
<g id="edge2" class="edge">
<title>o&#45;&gt;h</title>
<path fill="none" stroke="#65758b" d="M318.53,-539.85C326.3,-532.43 335.24,-523.88 343.29,-516.19"/>
<polygon fill="#65758b" stroke="#65758b" points="345.32,-517.63 348.69,-511.02 341.94,-514.09 345.32,-517.63"/>
</g>
<!-- c -->
<g id="node5" class="node">
<title>c</title>
<path fill="#f2efff" stroke="#8173ad" stroke-width="1.2" d="M374,-364C374,-364 223,-364 223,-364 217,-364 211,-358 211,-352 211,-352 211,-336 211,-336 211,-330 217,-324 223,-324 223,-324 374,-324 374,-324 380,-324 386,-330 386,-336 386,-336 386,-352 386,-352 386,-358 380,-364 374,-364"/>
<text text-anchor="middle" x="298.5" y="-347.4" font-family="Noto Sans CJK SC" font-size="12.00">concat(当前71, 历史编码20)</text>
<text text-anchor="middle" x="298.5" y="-334.4" font-family="Noto Sans CJK SC" font-size="12.00">[B,91]</text>
</g>
<!-- p&#45;&gt;c -->
<g id="edge5" class="edge">
<title>p&#45;&gt;c</title>
<path fill="none" stroke="#65758b" d="M227.07,-401.45C239.46,-391.66 255.22,-379.21 268.77,-368.5"/>
<polygon fill="#65758b" stroke="#65758b" points="270.46,-370.29 274.43,-364.02 267.42,-366.44 270.46,-370.29"/>
</g>
<!-- he -->
<g id="node4" class="node">
<title>he</title>
<path fill="#eaf7f0" stroke="#478364" stroke-width="1.2" d="M474,-446C474,-446 309,-446 309,-446 303,-446 297,-440 297,-434 297,-434 297,-405 297,-405 297,-399 303,-393 309,-393 309,-393 474,-393 474,-393 480,-393 486,-399 486,-405 486,-405 486,-434 486,-434 486,-440 480,-446 474,-446"/>
<text text-anchor="middle" x="391.5" y="-429.4" font-family="Noto Sans CJK SC" font-size="12.00">StateHistoryEncoder</text>
<text text-anchor="middle" x="391.5" y="-416.4" font-family="Noto Sans CJK SC" font-size="12.00">逐帧MLP + 两层Conv1d + MLP</text>
<text text-anchor="middle" x="391.5" y="-403.4" font-family="Noto Sans CJK SC" font-size="12.00">输出 [B,20]</text>
</g>
<!-- h&#45;&gt;he -->
<g id="edge3" class="edge">
<title>h&#45;&gt;he</title>
<path fill="none" stroke="#65758b" d="M372.55,-474.69C374.85,-468.11 377.56,-460.38 380.19,-452.85"/>
<polygon fill="#65758b" stroke="#65758b" points="382.57,-453.45 382.57,-446.04 377.95,-451.83 382.57,-453.45"/>
</g>
<!-- he&#45;&gt;c -->
<g id="edge4" class="edge">
<title>he&#45;&gt;c</title>
<path fill="none" stroke="#65758b" d="M359.23,-393C349.24,-385.1 338.26,-376.43 328.43,-368.66"/>
<polygon fill="#65758b" stroke="#65758b" points="329.8,-366.61 322.79,-364.2 326.76,-370.46 329.8,-366.61"/>
</g>
<!-- trunk -->
<g id="node6" class="node">
<title>trunk</title>
<path fill="#eaf7f0" stroke="#478364" stroke-width="1.2" d="M358,-295C358,-295 239,-295 239,-295 233,-295 227,-289 227,-283 227,-283 227,-267 227,-267 227,-261 233,-255 239,-255 239,-255 358,-255 358,-255 364,-255 370,-261 370,-267 370,-267 370,-283 370,-283 370,-289 364,-295 358,-295"/>
<text text-anchor="middle" x="298.5" y="-278.4" font-family="Noto Sans CJK SC" font-size="12.00">actor_backbone</text>
<text text-anchor="middle" x="298.5" y="-265.4" font-family="Noto Sans CJK SC" font-size="12.00">Linear 91→128 + ELU</text>
</g>
<!-- c&#45;&gt;trunk -->
<g id="edge6" class="edge">
<title>c&#45;&gt;trunk</title>
<path fill="none" stroke="#65758b" d="M298.5,-323.98C298.5,-317.25 298.5,-309.55 298.5,-302.32"/>
<polygon fill="#65758b" stroke="#65758b" points="300.95,-302.3 298.5,-295.3 296.05,-302.3 300.95,-302.3"/>
</g>
<!-- leg -->
<g id="node7" class="node">
<title>leg</title>
<path fill="#eaf7f0" stroke="#478364" stroke-width="1.2" d="M273,-226C273,-226 136,-226 136,-226 130,-226 124,-220 124,-214 124,-214 124,-172 124,-172 124,-166 130,-160 136,-160 136,-160 273,-160 273,-160 279,-160 285,-166 285,-172 285,-172 285,-214 285,-214 285,-220 279,-226 273,-226"/>
<text text-anchor="middle" x="204.5" y="-209.4" font-family="Noto Sans CJK SC" font-size="12.00">actor_leg_control_head</text>
<text text-anchor="middle" x="204.5" y="-196.4" font-family="Noto Sans CJK SC" font-size="12.00">Linear 128→128 + ELU</text>
<text text-anchor="middle" x="204.5" y="-183.4" font-family="Noto Sans CJK SC" font-size="12.00">Linear 128→128 + ELU</text>
<text text-anchor="middle" x="204.5" y="-170.4" font-family="Noto Sans CJK SC" font-size="12.00">Linear 128→12</text>
</g>
<!-- trunk&#45;&gt;leg -->
<g id="edge7" class="edge">
<title>trunk&#45;&gt;leg</title>
<path fill="none" stroke="#65758b" d="M275.75,-254.63C267.31,-247.46 257.44,-239.05 247.78,-230.83"/>
<polygon fill="#65758b" stroke="#65758b" points="249.36,-228.97 242.45,-226.29 246.19,-232.7 249.36,-228.97"/>
</g>
<!-- arm -->
<g id="node8" class="node">
<title>arm</title>
<path fill="#eaf7f0" stroke="#478364" stroke-width="1.2" d="M464.5,-226C464.5,-226 322.5,-226 322.5,-226 316.5,-226 310.5,-220 310.5,-214 310.5,-214 310.5,-172 310.5,-172 310.5,-166 316.5,-160 322.5,-160 322.5,-160 464.5,-160 464.5,-160 470.5,-160 476.5,-166 476.5,-172 476.5,-172 476.5,-214 476.5,-214 476.5,-220 470.5,-226 464.5,-226"/>
<text text-anchor="middle" x="393.5" y="-209.4" font-family="Noto Sans CJK SC" font-size="12.00">actor_arm_control_head</text>
<text text-anchor="middle" x="393.5" y="-196.4" font-family="Noto Sans CJK SC" font-size="12.00">Linear 128→128 + ELU</text>
<text text-anchor="middle" x="393.5" y="-183.4" font-family="Noto Sans CJK SC" font-size="12.00">Linear 128→128 + ELU</text>
<text text-anchor="middle" x="393.5" y="-170.4" font-family="Noto Sans CJK SC" font-size="12.00">Linear 128→6</text>
</g>
<!-- trunk&#45;&gt;arm -->
<g id="edge8" class="edge">
<title>trunk&#45;&gt;arm</title>
<path fill="none" stroke="#65758b" d="M321.5,-254.63C330.02,-247.46 340,-239.05 349.76,-230.83"/>
<polygon fill="#65758b" stroke="#65758b" points="351.37,-232.68 355.15,-226.29 348.22,-228.93 351.37,-232.68"/>
</g>
<!-- out -->
<g id="node9" class="node">
<title>out</title>
<path fill="#fff1dc" stroke="#b48640" stroke-width="1.2" d="M396.5,-131C396.5,-131 200.5,-131 200.5,-131 194.5,-131 188.5,-125 188.5,-119 188.5,-119 188.5,-107 188.5,-107 188.5,-101 194.5,-95 200.5,-95 200.5,-95 396.5,-95 396.5,-95 402.5,-95 408.5,-101 408.5,-107 408.5,-107 408.5,-119 408.5,-119 408.5,-125 402.5,-131 396.5,-131"/>
<text text-anchor="middle" x="298.5" y="-109.9" font-family="Noto Sans CJK SC" font-size="12.00">Actor输出：concat → 18维动作均值</text>
</g>
<!-- leg&#45;&gt;out -->
<g id="edge9" class="edge">
<title>leg&#45;&gt;out</title>
<path fill="none" stroke="#65758b" d="M243.28,-159.82C253.08,-151.69 263.37,-143.15 272.38,-135.68"/>
<polygon fill="#65758b" stroke="#65758b" points="273.98,-137.53 277.8,-131.17 270.85,-133.76 273.98,-137.53"/>
</g>
<!-- arm&#45;&gt;out -->
<g id="edge10" class="edge">
<title>arm&#45;&gt;out</title>
<path fill="none" stroke="#65758b" d="M354.31,-159.82C344.41,-151.69 334.01,-143.15 324.9,-135.68"/>
<polygon fill="#65758b" stroke="#65758b" points="326.38,-133.72 319.42,-131.17 323.27,-137.51 326.38,-133.72"/>
</g>
<!-- pd -->
<g id="node10" class="node">
<title>pd</title>
<path fill="#f1f3f5" stroke="#8a949e" stroke-width="1.2" d="M370.5,-66C370.5,-66 226.5,-66 226.5,-66 220.5,-66 214.5,-60 214.5,-54 214.5,-54 214.5,-12 214.5,-12 214.5,-6 220.5,0 226.5,0 226.5,0 370.5,0 370.5,0 376.5,0 382.5,-6 382.5,-12 382.5,-12 382.5,-54 382.5,-54 382.5,-60 376.5,-66 370.5,-66"/>
<text text-anchor="middle" x="298.5" y="-49.4" font-family="Noto Sans CJK SC" font-size="12.00">环境重排关节顺序</text>
<text text-anchor="middle" x="298.5" y="-36.4" font-family="Noto Sans CJK SC" font-size="12.00">腿部12维用于PD力矩</text>
<text text-anchor="middle" x="298.5" y="-23.4" font-family="Noto Sans CJK SC" font-size="12.00">机械臂6维对应力矩被置零</text>
<text text-anchor="middle" x="298.5" y="-10.4" font-family="Noto Sans CJK SC" font-size="12.00">机械臂实际通过IK目标执行</text>
</g>
<!-- out&#45;&gt;pd -->
<g id="edge11" class="edge">
<title>out&#45;&gt;pd</title>
<path fill="none" stroke="#65758b" d="M298.5,-94.69C298.5,-88.36 298.5,-80.92 298.5,-73.45"/>
<polygon fill="#65758b" stroke="#65758b" points="300.95,-73.01 298.5,-66.01 296.05,-73.01 300.95,-73.01"/>
</g>
</g>
</svg>
