<?xml version="1.0" encoding="UTF-8" standalone="no"?>
<!DOCTYPE svg PUBLIC "-//W3C//DTD SVG 1.1//EN"
 "http://www.w3.org/Graphics/SVG/1.1/DTD/svg11.dtd">
<!-- Generated by graphviz version 2.43.0 (0)
 -->
<!-- Title: G Pages: 1 -->
<svg width="1348pt" height="166pt"
 viewBox="0.00 0.00 1348.20 165.70" xmlns="http://www.w3.org/2000/svg" xmlns:xlink="http://www.w3.org/1999/xlink">
<g id="graph0" class="graph" transform="scale(1 1) rotate(0) translate(21.6 144.1)">
<title>G</title>
<polygon fill="white" stroke="transparent" points="-21.6,21.6 -21.6,-144.1 1326.6,-144.1 1326.6,21.6 -21.6,21.6"/>
<text text-anchor="middle" x="652.5" y="-102.5" font-family="Noto Sans CJK SC" font-size="20.00">图 7｜主动感知为何出现：动作影响最终预测误差</text>
<!-- action -->
<g id="node1" class="node">
<title>action</title>
<path fill="#eaf7f0" stroke="#49836a" stroke-width="1.2" d="M171,-50.5C171,-50.5 12,-50.5 12,-50.5 6,-50.5 0,-44.5 0,-38.5 0,-38.5 0,-18.5 0,-18.5 0,-12.5 6,-6.5 12,-6.5 12,-6.5 171,-6.5 171,-6.5 177,-6.5 183,-12.5 183,-18.5 183,-18.5 183,-38.5 183,-38.5 183,-44.5 177,-50.5 171,-50.5"/>
<text text-anchor="middle" x="91.5" y="-31.9" font-family="Noto Sans CJK SC" font-size="12.00">Actor 的全身动作</text>
<text text-anchor="middle" x="91.5" y="-18.9" font-family="Noto Sans CJK SC" font-size="12.00">移动、转身、机身俯仰、挥臂</text>
</g>
<!-- view -->
<g id="node2" class="node">
<title>view</title>
<path fill="#eaf3ff" stroke="#5487bd" stroke-width="1.2" d="M384,-92.5C384,-92.5 228,-92.5 228,-92.5 222,-92.5 216,-86.5 216,-80.5 216,-80.5 216,-60.5 216,-60.5 216,-54.5 222,-48.5 228,-48.5 228,-48.5 384,-48.5 384,-48.5 390,-48.5 396,-54.5 396,-60.5 396,-60.5 396,-80.5 396,-80.5 396,-86.5 390,-92.5 384,-92.5"/>
<text text-anchor="middle" x="306" y="-73.9" font-family="Noto Sans CJK SC" font-size="12.00">相机位姿 / 目标距离 / 角运动</text>
<text text-anchor="middle" x="306" y="-60.9" font-family="Noto Sans CJK SC" font-size="12.00">视野和运动模糊发生变化</text>
</g>
<!-- action&#45;&gt;view -->
<g id="edge1" class="edge">
<title>action&#45;&gt;view</title>
<path fill="none" stroke="#64748b" d="M183.24,-46.43C191.7,-48.11 200.29,-49.8 208.8,-51.49"/>
<polygon fill="#64748b" stroke="#64748b" points="208.58,-53.94 215.92,-52.89 209.53,-49.13 208.58,-53.94"/>
</g>
<!-- sensor -->
<g id="node3" class="node">
<title>sensor</title>
<path fill="#f2efff" stroke="#8371ac" stroke-width="1.2" d="M624,-92.5C624,-92.5 441,-92.5 441,-92.5 435,-92.5 429,-86.5 429,-80.5 429,-80.5 429,-60.5 429,-60.5 429,-54.5 435,-48.5 441,-48.5 441,-48.5 624,-48.5 624,-48.5 630,-48.5 636,-54.5 636,-60.5 636,-60.5 636,-80.5 636,-80.5 636,-86.5 630,-92.5 624,-92.5"/>
<text text-anchor="middle" x="532.5" y="-73.9" font-family="Noto Sans CJK SC" font-size="12.00">检测是否成功 + 位置误差</text>
<text text-anchor="middle" x="532.5" y="-60.9" font-family="Noto Sans CJK SC" font-size="12.00">真实数据拟合的运动相关感知模型</text>
</g>
<!-- view&#45;&gt;sensor -->
<g id="edge2" class="edge">
<title>view&#45;&gt;sensor</title>
<path fill="none" stroke="#64748b" d="M396.05,-70.5C404.47,-70.5 413.07,-70.5 421.65,-70.5"/>
<polygon fill="#64748b" stroke="#64748b" points="421.84,-72.95 428.84,-70.5 421.84,-68.05 421.84,-72.95"/>
</g>
<!-- belief -->
<g id="node4" class="node">
<title>belief</title>
<path fill="#f2efff" stroke="#8371ac" stroke-width="1.2" d="M795,-92.5C795,-92.5 681,-92.5 681,-92.5 675,-92.5 669,-86.5 669,-80.5 669,-80.5 669,-60.5 669,-60.5 669,-54.5 675,-48.5 681,-48.5 681,-48.5 795,-48.5 795,-48.5 801,-48.5 807,-54.5 807,-60.5 807,-60.5 807,-80.5 807,-80.5 807,-86.5 801,-92.5 795,-92.5"/>
<text text-anchor="middle" x="738" y="-73.9" font-family="Noto Sans CJK SC" font-size="12.00">多次测量的 EKF 累积</text>
<text text-anchor="middle" x="738" y="-60.9" font-family="Noto Sans CJK SC" font-size="12.00">预测最终拦截点 p̂T</text>
</g>
<!-- sensor&#45;&gt;belief -->
<g id="edge3" class="edge">
<title>sensor&#45;&gt;belief</title>
<path fill="none" stroke="#64748b" d="M636.14,-70.5C644.7,-70.5 653.25,-70.5 661.55,-70.5"/>
<polygon fill="#64748b" stroke="#64748b" points="661.77,-72.95 668.77,-70.5 661.77,-68.05 661.77,-72.95"/>
</g>
<!-- task -->
<g id="node5" class="node">
<title>task</title>
<path fill="#fceceb" stroke="#b87874" stroke-width="1.2" d="M1029,-57C1029,-57 852,-57 852,-57 846,-57 840,-51 840,-45 840,-45 840,-12 840,-12 840,-6 846,0 852,0 852,0 1029,0 1029,0 1035,0 1041,-6 1041,-12 1041,-12 1041,-45 1041,-45 1041,-51 1035,-57 1029,-57"/>
<text text-anchor="middle" x="940.5" y="-38.4" font-family="Noto Sans CJK SC" font-size="12.00">任务跟踪与预测误差反馈</text>
<text text-anchor="middle" x="940.5" y="-25.4" font-family="Noto Sans CJK SC" font-size="12.00">对比 p̂T 与真值 pT</text>
<text text-anchor="middle" x="940.5" y="-12.4" font-family="Noto Sans CJK SC" font-size="12.00">通过 N&#45;P3O 学习权衡感知与运动</text>
</g>
<!-- belief&#45;&gt;task -->
<g id="edge4" class="edge">
<title>belief&#45;&gt;task</title>
<path fill="none" stroke="#64748b" d="M807.16,-56.22C815.49,-54.48 824.15,-52.66 832.88,-50.83"/>
<polygon fill="#64748b" stroke="#64748b" points="833.54,-53.2 839.89,-49.37 832.53,-48.4 833.54,-53.2"/>
</g>
<!-- task&#45;&gt;action -->
<g id="edge5" class="edge">
<title>task&#45;&gt;action</title>
<path fill="none" stroke="#64748b" stroke-dasharray="5,2" d="M839.84,-21.54C789.52,-18.03 739,-14.5 739,-14.5 305,-14.5 305,-14.5 305,-14.5 305,-14.5 246.14,-18.38 190.37,-22.05"/>
<polygon fill="#64748b" stroke="#64748b" points="190.06,-19.62 183.24,-22.52 190.38,-24.51 190.06,-19.62"/>
<text text-anchor="middle" x="532.5" y="-17.5" font-family="Noto Sans CJK SC" font-size="10.00">强化学习策略更新</text>
</g>
<!-- note -->
<g id="node6" class="node">
<title>note</title>
<path fill="#f3f4f6" stroke="#949ca6" stroke-width="1.2" d="M1293,-57C1293,-57 1086,-57 1086,-57 1080,-57 1074,-51 1074,-45 1074,-45 1074,-12 1074,-12 1074,-6 1080,0 1086,0 1086,0 1293,0 1293,0 1299,0 1305,-6 1305,-12 1305,-12 1305,-45 1305,-45 1305,-51 1299,-57 1293,-57"/>
<text text-anchor="middle" x="1189.5" y="-38.4" font-family="Noto Sans CJK SC" font-size="12.00">奖励不是单纯的 FOV/目标可见面积</text>
<text text-anchor="middle" x="1189.5" y="-25.4" font-family="Noto Sans CJK SC" font-size="12.00">不是 EKF 协方差奖励</text>
<text text-anchor="middle" x="1189.5" y="-12.4" font-family="Noto Sans CJK SC" font-size="12.00">也不要求穿过感知模块做可微反向传播</text>
</g>
<!-- task&#45;&gt;note -->
<g id="edge6" class="edge">
<title>task&#45;&gt;note</title>
<path fill="none" stroke="#64748b" stroke-dasharray="5,2" d="M1041.25,-28.5C1049.62,-28.5 1058.14,-28.5 1066.65,-28.5"/>
<polygon fill="#64748b" stroke="#64748b" points="1066.79,-30.95 1073.79,-28.5 1066.79,-26.05 1066.79,-30.95"/>
</g>
</g>
</svg>
