<?xml version="1.0" encoding="UTF-8" standalone="no"?>
<!DOCTYPE svg PUBLIC "-//W3C//DTD SVG 1.1//EN"
 "http://www.w3.org/Graphics/SVG/1.1/DTD/svg11.dtd">
<!-- Generated by graphviz version 2.43.0 (0)
 -->
<!-- Title: G Pages: 1 -->
<svg width="1671pt" height="696pt"
 viewBox="0.00 0.00 1671.20 696.20" xmlns="http://www.w3.org/2000/svg" xmlns:xlink="http://www.w3.org/1999/xlink">
<g id="graph0" class="graph" transform="scale(1 1) rotate(0) translate(21.6 674.6)">
<title>G</title>
<polygon fill="white" stroke="transparent" points="-21.6,21.6 -21.6,-674.6 1649.6,-674.6 1649.6,21.6 -21.6,21.6"/>
<text text-anchor="start" x="70.5" y="-631.6" font-family="Noto Sans CJK SC" font-weight="bold" font-size="23.00">已实现｜DQ 非对称 Actor–Critic：M0 / M1 / M2</text>
<text text-anchor="start" x="8" y="-616.6" font-family="Noto Sans CJK SC" font-size="13.00">默认 M2 = M1 + 传感器 belief；M0 / M1 可切换。蓝：部署观测　绿：继承网络　紫：新增模块　红：训练专用</text>
<text text-anchor="start" x="41.5" y="-603.6" font-family="Noto Sans CJK SC" font-size="13.00">训练打包 [priv1276, images62208, task5?, belief16?]：M0 = 63484，M1 = 63489，M2 = 63505</text>
<g id="clust1" class="cluster">
<title>cluster_critic</title>
<path fill="white" stroke="#cb9691" stroke-width="1.5" d="M20,-8C20,-8 1418,-8 1418,-8 1424,-8 1430,-14 1430,-20 1430,-20 1430,-282 1430,-282 1430,-288 1424,-294 1418,-294 1418,-294 20,-294 20,-294 14,-294 8,-288 8,-282 8,-282 8,-20 8,-20 8,-14 14,-8 20,-8"/>
<text text-anchor="middle" x="218" y="-277.2" font-family="Noto Sans CJK SC" font-size="16.00">Critic｜仅训练；保留自身 GT 编码器与 GFM；不读取图像</text>
</g>
<g id="clust4" class="cluster">
<title>cluster_actor</title>
<path fill="white" stroke="#89a9c7" stroke-width="1.5" d="M41,-302C41,-302 1608,-302 1608,-302 1614,-302 1620,-308 1620,-314 1620,-314 1620,-576 1620,-576 1620,-582 1614,-588 1608,-588 1608,-588 41,-588 41,-588 35,-588 29,-582 29,-576 29,-576 29,-314 29,-314 29,-308 35,-302 41,-302"/>
<text text-anchor="middle" x="246" y="-571.2" font-family="Noto Sans CJK SC" font-size="16.00">Actor｜所有模式均只使用部署可得输入；与 Critic 参数独立</text>
</g>
<!-- gt -->
<g id="node1" class="node">
<title>gt</title>
<path fill="#fcedec" stroke="#b47470" stroke-width="1.35" d="M194,-247C194,-247 55,-247 55,-247 49,-247 43,-241 43,-235 43,-235 43,-201 43,-201 43,-195 49,-189 55,-189 55,-189 194,-189 194,-189 200,-189 206,-195 206,-201 206,-201 206,-235 206,-235 206,-241 200,-247 194,-247"/>
<text text-anchor="middle" x="124.5" y="-228.6" font-family="Noto Sans CJK SC" font-size="13.00">归一化特权状态</text>
<text text-anchor="middle" x="124.5" y="-214.6" font-family="Noto Sans CJK SC" font-size="13.00">priv [B,1276]</text>
<text text-anchor="middle" x="124.5" y="-200.6" font-family="Noto Sans CJK SC" font-size="13.00">物体、机器人、抓取候选</text>
</g>
<!-- cgfm -->
<g id="node2" class="node">
<title>cgfm</title>
<path fill="#eaf5ec" stroke="#568362" stroke-width="1.35" d="M659,-220C659,-220 509,-220 509,-220 503,-220 497,-214 497,-208 497,-208 497,-160 497,-160 497,-154 503,-148 509,-148 509,-148 659,-148 659,-148 665,-148 671,-154 671,-160 671,-160 671,-208 671,-208 671,-214 665,-220 659,-220"/>
<text text-anchor="middle" x="584" y="-201.6" font-family="Noto Sans CJK SC" font-size="13.00">原 Critic 编码器 + GFM</text>
<text text-anchor="middle" x="584" y="-187.6" font-family="Noto Sans CJK SC" font-size="13.00">物体特征1024→512→128</text>
<text text-anchor="middle" x="584" y="-173.6" font-family="Noto Sans CJK SC" font-size="13.00">128 + 位姿6 → Query</text>
<text text-anchor="middle" x="584" y="-159.6" font-family="Noto Sans CJK SC" font-size="13.00">30×6候选 → 抓取表示6</text>
</g>
<!-- gt&#45;&gt;cgfm -->
<g id="edge1" class="edge">
<title>gt&#45;&gt;cgfm</title>
<path fill="none" stroke="#61768e" stroke-width="1.25" d="M206.24,-212C285.5,-206.11 406.32,-197.13 489.66,-190.94"/>
<polygon fill="#61768e" stroke="#61768e" stroke-width="1.25" points="489.86,-193.45 496.85,-190.4 489.48,-188.42 489.86,-193.45"/>
</g>
<!-- cfused -->
<g id="node3" class="node">
<title>cfused</title>
<path fill="#eaf5ec" stroke="#568362" stroke-width="1.35" d="M875,-252C875,-252 738,-252 738,-252 732,-252 726,-246 726,-240 726,-240 726,-192 726,-192 726,-186 732,-180 738,-180 738,-180 875,-180 875,-180 881,-180 887,-186 887,-192 887,-192 887,-240 887,-240 887,-246 881,-252 875,-252"/>
<text text-anchor="middle" x="806.5" y="-233.6" font-family="Noto Sans CJK SC" font-size="13.00">原206维融合</text>
<text text-anchor="middle" x="806.5" y="-219.6" font-family="Noto Sans CJK SC" font-size="13.00">状态 / 动作72 + 编码128</text>
<text text-anchor="middle" x="806.5" y="-205.6" font-family="Noto Sans CJK SC" font-size="13.00">+ 抓取表示6</text>
<text text-anchor="middle" x="806.5" y="-191.6" font-family="Noto Sans CJK SC" font-size="13.00">Linear 206→512</text>
</g>
<!-- gt&#45;&gt;cfused -->
<g id="edge6" class="edge">
<title>gt&#45;&gt;cfused</title>
<path fill="none" stroke="#61768e" stroke-width="1.25" d="M206.38,-220.65C314.31,-224.18 492,-230 492,-230 492,-230 676,-230 676,-230 676,-230 694.93,-227.95 718.31,-225.43"/>
<polygon fill="#61768e" stroke="#61768e" stroke-width="1.25" points="718.81,-227.91 725.7,-224.63 718.27,-222.9 718.81,-227.91"/>
<text text-anchor="middle" x="448" y="-232" font-family="Noto Sans CJK SC" font-size="10.00">状态 / 动作72</text>
</g>
<!-- cgfm&#45;&gt;cfused -->
<g id="edge2" class="edge">
<title>cgfm&#45;&gt;cfused</title>
<path fill="none" stroke="#61768e" stroke-width="1.25" d="M671.2,-196.51C686.81,-198.77 703.09,-201.14 718.71,-203.41"/>
<polygon fill="#61768e" stroke="#61768e" stroke-width="1.25" points="718.35,-205.9 725.84,-204.44 719.08,-200.91 718.35,-205.9"/>
</g>
<!-- csum -->
<g id="node7" class="node">
<title>csum</title>
<path fill="#fff4df" stroke="#ba924b" stroke-width="1.35" d="M1047,-153C1047,-153 949,-153 949,-153 943,-153 937,-147 937,-141 937,-141 937,-121 937,-121 937,-115 943,-109 949,-109 949,-109 1047,-109 1047,-109 1053,-109 1059,-115 1059,-121 1059,-121 1059,-141 1059,-141 1059,-147 1053,-153 1047,-153"/>
<text text-anchor="middle" x="998" y="-134.6" font-family="Noto Sans CJK SC" font-size="13.00">512维逐元素相加</text>
<text text-anchor="middle" x="998" y="-120.6" font-family="Noto Sans CJK SC" font-size="13.00">→ ELU</text>
</g>
<!-- cfused&#45;&gt;csum -->
<g id="edge3" class="edge">
<title>cfused&#45;&gt;csum</title>
<path fill="none" stroke="#61768e" stroke-width="1.25" d="M887.04,-180.32C905.28,-172.14 924.3,-163.61 941.28,-155.99"/>
<polygon fill="#61768e" stroke="#61768e" stroke-width="1.25" points="942.39,-158.26 947.93,-153.01 940.33,-153.66 942.39,-158.26"/>
</g>
<!-- task -->
<g id="node4" class="node">
<title>task</title>
<path fill="#fcedec" stroke="#b47470" stroke-width="1.35" d="M213,-163C213,-163 36,-163 36,-163 30,-163 24,-157 24,-151 24,-151 24,-103 24,-103 24,-97 30,-91 36,-91 36,-91 213,-91 213,-91 219,-91 225,-97 225,-103 225,-103 225,-151 225,-151 225,-157 219,-163 213,-163"/>
<text text-anchor="middle" x="124.5" y="-144.6" font-family="Noto Sans CJK SC" font-size="13.00">M1 / M2｜任务状态 [B,5]</text>
<text text-anchor="middle" x="124.5" y="-130.6" font-family="Noto Sans CJK SC" font-size="13.00">剩余时间、最近距离、最高高度</text>
<text text-anchor="middle" x="124.5" y="-116.6" font-family="Noto Sans CJK SC" font-size="13.00">持物计数比例、当前举起标志</text>
<text text-anchor="middle" x="124.5" y="-102.6" font-family="Noto Sans CJK SC" font-size="13.00">固定缩放 / 截断</text>
</g>
<!-- ctask -->
<g id="node5" class="node">
<title>ctask</title>
<path fill="#f1ecfc" stroke="#8270b0" stroke-width="1.35" d="M876.5,-160C876.5,-160 736.5,-160 736.5,-160 730.5,-160 724.5,-154 724.5,-148 724.5,-148 724.5,-114 724.5,-114 724.5,-108 730.5,-102 736.5,-102 736.5,-102 876.5,-102 876.5,-102 882.5,-102 888.5,-108 888.5,-114 888.5,-114 888.5,-148 888.5,-148 888.5,-154 882.5,-160 876.5,-160"/>
<text text-anchor="middle" x="806.5" y="-141.6" font-family="Noto Sans CJK SC" font-size="13.00">M1 / M2｜task_adapter</text>
<text text-anchor="middle" x="806.5" y="-127.6" font-family="Noto Sans CJK SC" font-size="13.00">5→512，无 bias</text>
<text text-anchor="middle" x="806.5" y="-113.6" font-family="Noto Sans CJK SC" font-size="13.00">新增时权重初始化为0</text>
</g>
<!-- task&#45;&gt;ctask -->
<g id="edge7" class="edge">
<title>task&#45;&gt;ctask</title>
<path fill="none" stroke="#61768e" stroke-width="1.25" d="M225.11,-127.59C357.67,-128.37 590.04,-129.73 716.83,-130.48"/>
<polygon fill="#61768e" stroke="#61768e" stroke-width="1.25" points="717.07,-133 724.28,-130.52 717.1,-127.96 717.07,-133"/>
</g>
<!-- ctask&#45;&gt;csum -->
<g id="edge8" class="edge">
<title>ctask&#45;&gt;csum</title>
<path fill="none" stroke="#61768e" stroke-width="1.25" d="M888.69,-131C902.34,-131 916.37,-131 929.61,-131"/>
<polygon fill="#61768e" stroke="#61768e" stroke-width="1.25" points="929.69,-133.52 936.89,-131 929.69,-128.48 929.69,-133.52"/>
</g>
<!-- cbelief -->
<g id="node6" class="node">
<title>cbelief</title>
<path fill="#f1ecfc" stroke="#8270b0" stroke-width="1.35" d="M894,-82C894,-82 719,-82 719,-82 713,-82 707,-76 707,-70 707,-70 707,-36 707,-36 707,-30 713,-24 719,-24 719,-24 894,-24 894,-24 900,-24 906,-30 906,-36 906,-36 906,-70 906,-70 906,-76 900,-82 894,-82"/>
<text text-anchor="middle" x="806.5" y="-63.6" font-family="Noto Sans CJK SC" font-size="13.00">M2｜belief_adapter</text>
<text text-anchor="middle" x="806.5" y="-49.6" font-family="Noto Sans CJK SC" font-size="13.00">同一传感器 belief16 → 512</text>
<text text-anchor="middle" x="806.5" y="-35.6" font-family="Noto Sans CJK SC" font-size="13.00">无 bias，新增时权重初始化为0</text>
</g>
<!-- cbelief&#45;&gt;csum -->
<g id="edge9" class="edge">
<title>cbelief&#45;&gt;csum</title>
<path fill="none" stroke="#61768e" stroke-width="1.25" d="M880.89,-82.06C895.27,-87.75 906,-92 906,-92 906,-92 921.08,-98.46 938.96,-106.12"/>
<polygon fill="#61768e" stroke="#61768e" stroke-width="1.25" points="938.04,-108.47 945.65,-108.99 940.02,-103.84 938.04,-108.47"/>
</g>
<!-- chead -->
<g id="node8" class="node">
<title>chead</title>
<path fill="#eaf5ec" stroke="#568362" stroke-width="1.35" d="M1219,-160C1219,-160 1102,-160 1102,-160 1096,-160 1090,-154 1090,-148 1090,-148 1090,-114 1090,-114 1090,-108 1096,-102 1102,-102 1102,-102 1219,-102 1219,-102 1225,-102 1231,-108 1231,-114 1231,-114 1231,-148 1231,-148 1231,-154 1225,-160 1219,-160"/>
<text text-anchor="middle" x="1160.5" y="-141.6" font-family="Noto Sans CJK SC" font-size="13.00">继承 Critic 下游 MLP</text>
<text text-anchor="middle" x="1160.5" y="-127.6" font-family="Noto Sans CJK SC" font-size="13.00">512→256 ELU</text>
<text text-anchor="middle" x="1160.5" y="-113.6" font-family="Noto Sans CJK SC" font-size="13.00">256→128 ELU → 1</text>
</g>
<!-- csum&#45;&gt;chead -->
<g id="edge4" class="edge">
<title>csum&#45;&gt;chead</title>
<path fill="none" stroke="#61768e" stroke-width="1.25" d="M1059.22,-131C1066.69,-131 1074.41,-131 1082.1,-131"/>
<polygon fill="#61768e" stroke="#61768e" stroke-width="1.25" points="1082.56,-133.52 1089.76,-131 1082.56,-128.48 1082.56,-133.52"/>
</g>
<!-- value -->
<g id="node9" class="node">
<title>value</title>
<path fill="#fff4df" stroke="#ba924b" stroke-width="1.35" d="M1402,-153C1402,-153 1277,-153 1277,-153 1271,-153 1265,-147 1265,-141 1265,-141 1265,-121 1265,-121 1265,-115 1271,-109 1277,-109 1277,-109 1402,-109 1402,-109 1408,-109 1414,-115 1414,-121 1414,-121 1414,-141 1414,-141 1414,-147 1408,-153 1402,-153"/>
<text text-anchor="middle" x="1339.5" y="-134.6" font-family="Noto Sans CJK SC" font-size="13.00">V(priv, task?, belief?)</text>
<text text-anchor="middle" x="1339.5" y="-120.6" font-family="Noto Sans CJK SC" font-size="13.00">GAE / PPO value loss</text>
</g>
<!-- chead&#45;&gt;value -->
<g id="edge5" class="edge">
<title>chead&#45;&gt;value</title>
<path fill="none" stroke="#61768e" stroke-width="1.25" d="M1231.2,-131C1239.82,-131 1248.68,-131 1257.45,-131"/>
<polygon fill="#61768e" stroke="#61768e" stroke-width="1.25" points="1257.58,-133.52 1264.78,-131 1257.58,-128.48 1257.58,-133.52"/>
</g>
<!-- images -->
<g id="node10" class="node">
<title>images</title>
<path fill="#e9f2fd" stroke="#5584b0" stroke-width="1.35" d="M186,-454C186,-454 63,-454 63,-454 57,-454 51,-448 51,-442 51,-442 51,-408 51,-408 51,-402 57,-396 63,-396 63,-396 186,-396 186,-396 192,-396 198,-402 198,-408 198,-408 198,-442 198,-442 198,-448 192,-454 186,-454"/>
<text text-anchor="middle" x="124.5" y="-435.6" font-family="Noto Sans CJK SC" font-size="13.00">双相机 mask + depth</text>
<text text-anchor="middle" x="124.5" y="-421.6" font-family="Noto Sans CJK SC" font-size="13.00">每路三帧历史</text>
<text text-anchor="middle" x="124.5" y="-407.6" font-family="Noto Sans CJK SC" font-size="13.00">[B,12,54,96] = 62208</text>
</g>
<!-- cnn -->
<g id="node13" class="node">
<title>cnn</title>
<path fill="#eaf5ec" stroke="#568362" stroke-width="1.35" d="M392,-446C392,-446 268,-446 268,-446 262,-446 256,-440 256,-434 256,-434 256,-400 256,-400 256,-394 262,-388 268,-388 268,-388 392,-388 392,-388 398,-388 404,-394 404,-400 404,-400 404,-434 404,-434 404,-440 398,-446 392,-446"/>
<text text-anchor="middle" x="330" y="-427.6" font-family="Noto Sans CJK SC" font-size="13.00">共享 CNN</text>
<text text-anchor="middle" x="330" y="-413.6" font-family="Noto Sans CJK SC" font-size="13.00">每帧 2×54×96 → 64</text>
<text text-anchor="middle" x="330" y="-399.6" font-family="Noto Sans CJK SC" font-size="13.00">两相机、三帧共用</text>
</g>
<!-- images&#45;&gt;cnn -->
<g id="edge10" class="edge">
<title>images&#45;&gt;cnn</title>
<path fill="none" stroke="#61768e" stroke-width="1.25" d="M198.11,-422.15C214.34,-421.51 231.65,-420.83 248.2,-420.18"/>
<polygon fill="#61768e" stroke="#61768e" stroke-width="1.25" points="248.64,-422.68 255.74,-419.88 248.44,-417.65 248.64,-422.68"/>
</g>
<!-- p -->
<g id="node11" class="node">
<title>p</title>
<path fill="#e9f2fd" stroke="#5584b0" stroke-width="1.35" d="M187,-537C187,-537 62,-537 62,-537 56,-537 50,-531 50,-525 50,-525 50,-491 50,-491 50,-485 56,-479 62,-479 62,-479 187,-479 187,-479 193,-479 199,-485 199,-491 199,-491 199,-525 199,-525 199,-531 193,-537 187,-537"/>
<text text-anchor="middle" x="124.5" y="-518.6" font-family="Noto Sans CJK SC" font-size="13.00">归一化本体 / 动作历史</text>
<text text-anchor="middle" x="124.5" y="-504.6" font-family="Noto Sans CJK SC" font-size="13.00">p [B,61]</text>
<text text-anchor="middle" x="124.5" y="-490.6" font-family="Noto Sans CJK SC" font-size="13.00">机器人52 + 上一动作9</text>
</g>
<!-- ta -->
<g id="node14" class="node">
<title>ta</title>
<path fill="#eaf5ec" stroke="#568362" stroke-width="1.35" d="M664,-524C664,-524 504,-524 504,-524 498,-524 492,-518 492,-512 492,-512 492,-464 492,-464 492,-458 498,-452 504,-452 504,-452 664,-452 664,-452 670,-452 676,-458 676,-464 676,-464 676,-512 676,-512 676,-518 670,-524 664,-524"/>
<text text-anchor="middle" x="584" y="-505.6" font-family="Noto Sans CJK SC" font-size="13.00">腕相机 GuidedTransformer</text>
<text text-anchor="middle" x="584" y="-491.6" font-family="Noto Sans CJK SC" font-size="13.00">3视觉 token + 1状态 token</text>
<text text-anchor="middle" x="584" y="-477.6" font-family="Noto Sans CJK SC" font-size="13.00">2层 / 2头 / d=64</text>
<text text-anchor="middle" x="584" y="-463.6" font-family="Noto Sans CJK SC" font-size="13.00">FF=2048，dropout=0</text>
</g>
<!-- p&#45;&gt;ta -->
<g id="edge13" class="edge">
<title>p&#45;&gt;ta</title>
<path fill="none" stroke="#61768e" stroke-width="1.25" d="M199.01,-504.79C276.44,-501.4 398.81,-496.05 484.55,-492.3"/>
<polygon fill="#61768e" stroke="#61768e" stroke-width="1.25" points="484.87,-494.81 491.95,-491.98 484.64,-489.78 484.87,-494.81"/>
<text text-anchor="middle" x="330" y="-505" font-family="Noto Sans CJK SC" font-size="10.00">61→64 状态 token</text>
</g>
<!-- tb -->
<g id="node15" class="node">
<title>tb</title>
<path fill="#eaf5ec" stroke="#568362" stroke-width="1.35" d="M661.5,-432C661.5,-432 506.5,-432 506.5,-432 500.5,-432 494.5,-426 494.5,-420 494.5,-420 494.5,-372 494.5,-372 494.5,-366 500.5,-360 506.5,-360 506.5,-360 661.5,-360 661.5,-360 667.5,-360 673.5,-366 673.5,-372 673.5,-372 673.5,-420 673.5,-420 673.5,-426 667.5,-432 661.5,-432"/>
<text text-anchor="middle" x="584" y="-413.6" font-family="Noto Sans CJK SC" font-size="13.00">底盘 GuidedTransformer</text>
<text text-anchor="middle" x="584" y="-399.6" font-family="Noto Sans CJK SC" font-size="13.00">3视觉 token + 1状态 token</text>
<text text-anchor="middle" x="584" y="-385.6" font-family="Noto Sans CJK SC" font-size="13.00">2层 / 2头 / d=64</text>
<text text-anchor="middle" x="584" y="-371.6" font-family="Noto Sans CJK SC" font-size="13.00">FF=2048，dropout=0</text>
</g>
<!-- p&#45;&gt;tb -->
<g id="edge14" class="edge">
<title>p&#45;&gt;tb</title>
<path fill="none" stroke="#61768e" stroke-width="1.25" d="M199.04,-494.27C281.55,-478.86 404,-456 404,-456 404,-456 444.79,-442.33 487.43,-428.03"/>
<polygon fill="#61768e" stroke="#61768e" stroke-width="1.25" points="488.26,-430.41 494.29,-425.74 486.66,-425.64 488.26,-430.41"/>
</g>
<!-- pa -->
<g id="node17" class="node">
<title>pa</title>
<path fill="#f1ecfc" stroke="#8270b0" stroke-width="1.35" d="M864.5,-546C864.5,-546 748.5,-546 748.5,-546 742.5,-546 736.5,-540 736.5,-534 736.5,-534 736.5,-500 736.5,-500 736.5,-494 742.5,-488 748.5,-488 748.5,-488 864.5,-488 864.5,-488 870.5,-488 876.5,-494 876.5,-500 876.5,-500 876.5,-534 876.5,-534 876.5,-540 870.5,-546 864.5,-546"/>
<text text-anchor="middle" x="806.5" y="-527.6" font-family="Noto Sans CJK SC" font-size="13.00">proprio_adapter</text>
<text text-anchor="middle" x="806.5" y="-513.6" font-family="Noto Sans CJK SC" font-size="13.00">61→512，含 bias</text>
<text text-anchor="middle" x="806.5" y="-499.6" font-family="Noto Sans CJK SC" font-size="13.00">继承原首层对应61列</text>
</g>
<!-- p&#45;&gt;pa -->
<g id="edge15" class="edge">
<title>p&#45;&gt;pa</title>
<path fill="none" stroke="#61768e" stroke-width="1.25" d="M199.14,-513.64C228.74,-515.91 256,-518 256,-518 256,-518 492,-534 492,-534 492,-534 676,-534 676,-534 676,-534 701,-530.72 729.02,-527.04"/>
<polygon fill="#61768e" stroke="#61768e" stroke-width="1.25" points="729.39,-529.53 736.2,-526.1 728.73,-524.54 729.39,-529.53"/>
</g>
<!-- belief -->
<g id="node12" class="node">
<title>belief</title>
<path fill="#e9f2fd" stroke="#5584b0" stroke-width="1.35" d="M192,-376C192,-376 57,-376 57,-376 51,-376 45,-370 45,-364 45,-364 45,-330 45,-330 45,-324 51,-318 57,-318 57,-318 192,-318 192,-318 198,-318 204,-324 204,-330 204,-330 204,-364 204,-364 204,-370 198,-376 192,-376"/>
<text text-anchor="middle" x="124.5" y="-357.6" font-family="Noto Sans CJK SC" font-size="13.00">M2｜传感器滤波 belief</text>
<text text-anchor="middle" x="124.5" y="-343.6" font-family="Noto Sans CJK SC" font-size="13.00">[B,16]，固定单位 / 截断</text>
<text text-anchor="middle" x="124.5" y="-329.6" font-family="Noto Sans CJK SC" font-size="13.00">感知流程见图3</text>
</g>
<!-- ba -->
<g id="node18" class="node">
<title>ba</title>
<path fill="#f1ecfc" stroke="#8270b0" stroke-width="1.35" d="M867,-376C867,-376 746,-376 746,-376 740,-376 734,-370 734,-364 734,-364 734,-330 734,-330 734,-324 740,-318 746,-318 746,-318 867,-318 867,-318 873,-318 879,-324 879,-330 879,-330 879,-364 879,-364 879,-370 873,-376 867,-376"/>
<text text-anchor="middle" x="806.5" y="-357.6" font-family="Noto Sans CJK SC" font-size="13.00">M2｜belief_adapter</text>
<text text-anchor="middle" x="806.5" y="-343.6" font-family="Noto Sans CJK SC" font-size="13.00">16→512，无 bias</text>
<text text-anchor="middle" x="806.5" y="-329.6" font-family="Noto Sans CJK SC" font-size="13.00">新增时权重初始化为0</text>
</g>
<!-- belief&#45;&gt;ba -->
<g id="edge17" class="edge">
<title>belief&#45;&gt;ba</title>
<path fill="none" stroke="#61768e" stroke-width="1.25" d="M204.17,-347C334.98,-347 595.76,-347 726.68,-347"/>
<polygon fill="#61768e" stroke="#61768e" stroke-width="1.25" points="726.76,-349.52 733.96,-347 726.76,-344.48 726.76,-349.52"/>
</g>
<!-- cnn&#45;&gt;ta -->
<g id="edge11" class="edge">
<title>cnn&#45;&gt;ta</title>
<path fill="none" stroke="#61768e" stroke-width="1.25" d="M404.23,-437.63C429.31,-444.7 457.79,-452.72 484.53,-460.26"/>
<polygon fill="#61768e" stroke="#61768e" stroke-width="1.25" points="484.04,-462.74 491.66,-462.26 485.41,-457.89 484.04,-462.74"/>
</g>
<!-- cnn&#45;&gt;tb -->
<g id="edge12" class="edge">
<title>cnn&#45;&gt;tb</title>
<path fill="none" stroke="#61768e" stroke-width="1.25" d="M404.23,-410.9C430.11,-408.74 459.61,-406.28 487.09,-403.99"/>
<polygon fill="#61768e" stroke="#61768e" stroke-width="1.25" points="487.44,-406.49 494.4,-403.38 487.02,-401.47 487.44,-406.49"/>
</g>
<!-- visual -->
<g id="node16" class="node">
<title>visual</title>
<path fill="#eaf5ec" stroke="#568362" stroke-width="1.35" d="M880,-468C880,-468 733,-468 733,-468 727,-468 721,-462 721,-456 721,-456 721,-408 721,-408 721,-402 727,-396 733,-396 733,-396 880,-396 880,-396 886,-396 892,-402 892,-408 892,-408 892,-456 892,-456 892,-462 886,-468 880,-468"/>
<text text-anchor="middle" x="806.5" y="-449.6" font-family="Noto Sans CJK SC" font-size="13.00">各路池化 + Linear 64→64</text>
<text text-anchor="middle" x="806.5" y="-435.6" font-family="Noto Sans CJK SC" font-size="13.00">拼接 z [B,128]</text>
<text text-anchor="middle" x="806.5" y="-421.6" font-family="Noto Sans CJK SC" font-size="13.00">继承 visual_adapter</text>
<text text-anchor="middle" x="806.5" y="-407.6" font-family="Noto Sans CJK SC" font-size="13.00">128→512，无 bias</text>
</g>
<!-- ta&#45;&gt;visual -->
<g id="edge19" class="edge">
<title>ta&#45;&gt;visual</title>
<path fill="none" stroke="#61768e" stroke-width="1.25" d="M676.28,-464.82C688.56,-461.7 701.16,-458.5 713.46,-455.38"/>
<polygon fill="#61768e" stroke="#61768e" stroke-width="1.25" points="714.3,-457.76 720.66,-453.55 713.06,-452.88 714.3,-457.76"/>
</g>
<!-- tb&#45;&gt;visual -->
<g id="edge20" class="edge">
<title>tb&#45;&gt;visual</title>
<path fill="none" stroke="#61768e" stroke-width="1.25" d="M673.73,-410.49C686.86,-412.63 700.41,-414.84 713.6,-417"/>
<polygon fill="#61768e" stroke="#61768e" stroke-width="1.25" points="713.37,-419.51 720.88,-418.19 714.18,-414.54 713.37,-419.51"/>
</g>
<!-- sum -->
<g id="node19" class="node">
<title>sum</title>
<path fill="#fff4df" stroke="#ba924b" stroke-width="1.35" d="M1047,-454C1047,-454 949,-454 949,-454 943,-454 937,-448 937,-442 937,-442 937,-422 937,-422 937,-416 943,-410 949,-410 949,-410 1047,-410 1047,-410 1053,-410 1059,-416 1059,-422 1059,-422 1059,-442 1059,-442 1059,-448 1053,-454 1047,-454"/>
<text text-anchor="middle" x="998" y="-435.6" font-family="Noto Sans CJK SC" font-size="13.00">512维逐元素相加</text>
<text text-anchor="middle" x="998" y="-421.6" font-family="Noto Sans CJK SC" font-size="13.00">→ ELU</text>
</g>
<!-- visual&#45;&gt;sum -->
<g id="edge21" class="edge">
<title>visual&#45;&gt;sum</title>
<path fill="none" stroke="#61768e" stroke-width="1.25" d="M892.27,-432C904.76,-432 917.48,-432 929.55,-432"/>
<polygon fill="#61768e" stroke="#61768e" stroke-width="1.25" points="929.78,-434.52 936.98,-432 929.78,-429.48 929.78,-434.52"/>
</g>
<!-- pa&#45;&gt;sum -->
<g id="edge16" class="edge">
<title>pa&#45;&gt;sum</title>
<path fill="none" stroke="#61768e" stroke-width="1.25" d="M876.71,-489.6C893.14,-483.09 906,-478 906,-478 906,-478 925.72,-468.03 946.8,-457.38"/>
<polygon fill="#61768e" stroke="#61768e" stroke-width="1.25" points="948.08,-459.55 953.37,-454.06 945.8,-455.06 948.08,-459.55"/>
</g>
<!-- ba&#45;&gt;sum -->
<g id="edge18" class="edge">
<title>ba&#45;&gt;sum</title>
<path fill="none" stroke="#61768e" stroke-width="1.25" d="M879.08,-375.34C894.36,-381.39 906,-386 906,-386 906,-386 925.72,-395.97 946.8,-406.62"/>
<polygon fill="#61768e" stroke="#61768e" stroke-width="1.25" points="945.8,-408.94 953.37,-409.94 948.08,-404.45 945.8,-408.94"/>
</g>
<!-- head -->
<g id="node20" class="node">
<title>head</title>
<path fill="#eaf5ec" stroke="#568362" stroke-width="1.35" d="M1219,-468C1219,-468 1102,-468 1102,-468 1096,-468 1090,-462 1090,-456 1090,-456 1090,-408 1090,-408 1090,-402 1096,-396 1102,-396 1102,-396 1219,-396 1219,-396 1225,-396 1231,-402 1231,-408 1231,-408 1231,-456 1231,-456 1231,-462 1225,-468 1219,-468"/>
<text text-anchor="middle" x="1160.5" y="-449.6" font-family="Noto Sans CJK SC" font-size="13.00">继承 Actor 下游 MLP</text>
<text text-anchor="middle" x="1160.5" y="-435.6" font-family="Noto Sans CJK SC" font-size="13.00">512→256 ELU</text>
<text text-anchor="middle" x="1160.5" y="-421.6" font-family="Noto Sans CJK SC" font-size="13.00">256→128 ELU → 9</text>
<text text-anchor="middle" x="1160.5" y="-407.6" font-family="Noto Sans CJK SC" font-size="13.00">输出动作均值 μ</text>
</g>
<!-- sum&#45;&gt;head -->
<g id="edge22" class="edge">
<title>sum&#45;&gt;head</title>
<path fill="none" stroke="#61768e" stroke-width="1.25" d="M1059.22,-432C1066.69,-432 1074.41,-432 1082.1,-432"/>
<polygon fill="#61768e" stroke="#61768e" stroke-width="1.25" points="1082.56,-434.52 1089.76,-432 1082.56,-429.48 1082.56,-434.52"/>
</g>
<!-- normal -->
<g id="node21" class="node">
<title>normal</title>
<path fill="#eaf5ec" stroke="#568362" stroke-width="1.35" d="M1405,-461C1405,-461 1274,-461 1274,-461 1268,-461 1262,-455 1262,-449 1262,-449 1262,-415 1262,-415 1262,-409 1268,-403 1274,-403 1274,-403 1405,-403 1405,-403 1411,-403 1417,-409 1417,-415 1417,-415 1417,-449 1417,-449 1417,-455 1411,-461 1405,-461"/>
<text text-anchor="middle" x="1339.5" y="-442.6" font-family="Noto Sans CJK SC" font-size="13.00">继承可学习 log_std [9]</text>
<text text-anchor="middle" x="1339.5" y="-428.6" font-family="Noto Sans CJK SC" font-size="13.00">对角高斯策略</text>
<text text-anchor="middle" x="1339.5" y="-414.6" font-family="Noto Sans CJK SC" font-size="13.00">训练采样 / 评估取 μ</text>
</g>
<!-- head&#45;&gt;normal -->
<g id="edge23" class="edge">
<title>head&#45;&gt;normal</title>
<path fill="none" stroke="#61768e" stroke-width="1.25" d="M1231.2,-432C1238.75,-432 1246.48,-432 1254.18,-432"/>
<polygon fill="#61768e" stroke="#61768e" stroke-width="1.25" points="1254.65,-434.52 1261.85,-432 1254.65,-429.48 1254.65,-434.52"/>
</g>
<!-- control -->
<g id="node22" class="node">
<title>control</title>
<path fill="#f0f2f4" stroke="#85909b" stroke-width="1.35" d="M1592,-461C1592,-461 1466,-461 1466,-461 1460,-461 1454,-455 1454,-449 1454,-449 1454,-415 1454,-415 1454,-409 1460,-403 1466,-403 1466,-403 1592,-403 1592,-403 1598,-403 1604,-409 1604,-415 1604,-415 1604,-449 1604,-449 1604,-455 1598,-461 1592,-461"/>
<text text-anchor="middle" x="1529" y="-442.6" font-family="Noto Sans CJK SC" font-size="13.00">9维高层动作</text>
<text text-anchor="middle" x="1529" y="-428.6" font-family="Noto Sans CJK SC" font-size="13.00">固定原 LLP + IK + 夹爪</text>
<text text-anchor="middle" x="1529" y="-414.6" font-family="Noto Sans CJK SC" font-size="13.00">保持 DQ 执行接口</text>
</g>
<!-- normal&#45;&gt;control -->
<g id="edge24" class="edge">
<title>normal&#45;&gt;control</title>
<path fill="none" stroke="#61768e" stroke-width="1.25" d="M1417.03,-432C1426.72,-432 1436.65,-432 1446.41,-432"/>
<polygon fill="#61768e" stroke="#61768e" stroke-width="1.25" points="1446.63,-434.52 1453.83,-432 1446.63,-429.48 1446.63,-434.52"/>
</g>
</g>
</svg>
