<?xml version="1.0" encoding="UTF-8" standalone="no"?>
<!DOCTYPE svg PUBLIC "-//W3C//DTD SVG 1.1//EN"
 "http://www.w3.org/Graphics/SVG/1.1/DTD/svg11.dtd">
<!-- Generated by graphviz version 2.43.0 (0)
 -->
<!-- Title: G Pages: 1 -->
<svg width="1825pt" height="533pt"
 viewBox="0.00 0.00 1825.20 533.20" xmlns="http://www.w3.org/2000/svg" xmlns:xlink="http://www.w3.org/1999/xlink">
<g id="graph0" class="graph" transform="scale(1 1) rotate(0) translate(21.6 511.6)">
<title>G</title>
<polygon fill="white" stroke="transparent" points="-21.6,21.6 -21.6,-511.6 1803.6,-511.6 1803.6,21.6 -21.6,21.6"/>
<text text-anchor="start" x="76.5" y="-468.6" font-family="Noto Sans CJK SC" font-weight="bold" font-size="23.00">已实现｜教师权重直接迁移 → 非对称 PPO</text>
<text text-anchor="start" x="8" y="-453.6" font-family="Noto Sans CJK SC" font-size="13.00">从第一轮 rollout 起，Actor 就只接收部署输入。新增 adapter 为零初始化；已有视觉权重完整继承。</text>
<g id="clust1" class="cluster">
<title>cluster_migration</title>
<path fill="white" stroke="#a3bda9" stroke-width="1.5" d="M50.5,-88C50.5,-88 971,-88 971,-88 977,-88 983,-94 983,-100 983,-100 983,-426 983,-426 983,-432 977,-438 971,-438 971,-438 50.5,-438 50.5,-438 44.5,-438 38.5,-432 38.5,-426 38.5,-426 38.5,-100 38.5,-100 38.5,-94 44.5,-88 50.5,-88"/>
<text text-anchor="middle" x="228.5" y="-421.2" font-family="Noto Sans CJK SC" font-size="16.00">权重迁移｜源：TeacherVisionPolicy / 原教师 Critic</text>
</g>
<g id="clust6" class="cluster">
<title>cluster_training</title>
<path fill="white" stroke="#b2a4d2" stroke-width="1.5" d="M1081,-88C1081,-88 1762,-88 1762,-88 1768,-88 1774,-94 1774,-100 1774,-100 1774,-206 1774,-206 1774,-212 1768,-218 1762,-218 1762,-218 1081,-218 1081,-218 1075,-218 1069,-212 1069,-206 1069,-206 1069,-100 1069,-100 1069,-94 1075,-88 1081,-88"/>
<text text-anchor="middle" x="1238" y="-201.2" font-family="Noto Sans CJK SC" font-size="16.00">直接 PPO｜模式可切换 M0 / M1 / M2（默认）</text>
</g>
<!-- first -->
<g id="node1" class="node">
<title>first</title>
<path fill="#eaf5ec" stroke="#568362" stroke-width="1.35" d="M201.5,-396C201.5,-396 103.5,-396 103.5,-396 97.5,-396 91.5,-390 91.5,-384 91.5,-384 91.5,-350 91.5,-350 91.5,-344 97.5,-338 103.5,-338 103.5,-338 201.5,-338 201.5,-338 207.5,-338 213.5,-344 213.5,-350 213.5,-350 213.5,-384 213.5,-384 213.5,-390 207.5,-396 201.5,-396"/>
<text text-anchor="middle" x="152.5" y="-377.6" font-family="Noto Sans CJK SC" font-size="13.00">教师 Actor 首层</text>
<text text-anchor="middle" x="152.5" y="-363.6" font-family="Noto Sans CJK SC" font-size="13.00">Linear 206→512</text>
<text text-anchor="middle" x="152.5" y="-349.6" font-family="Noto Sans CJK SC" font-size="13.00">206维融合输入</text>
</g>
<!-- select -->
<g id="node2" class="node">
<title>select</title>
<path fill="#f1ecfc" stroke="#8270b0" stroke-width="1.35" d="M491,-396C491,-396 357,-396 357,-396 351,-396 345,-390 345,-384 345,-384 345,-350 345,-350 345,-344 351,-338 357,-338 357,-338 491,-338 491,-338 497,-338 503,-344 503,-350 503,-350 503,-384 503,-384 503,-390 497,-396 491,-396"/>
<text text-anchor="middle" x="424" y="-377.6" font-family="Noto Sans CJK SC" font-size="13.00">选取首层的本体列</text>
<text text-anchor="middle" x="424" y="-363.6" font-family="Noto Sans CJK SC" font-size="13.00">keep = [6:58] + [63:72]</text>
<text text-anchor="middle" x="424" y="-349.6" font-family="Noto Sans CJK SC" font-size="13.00">并复制完整 bias</text>
</g>
<!-- first&#45;&gt;select -->
<g id="edge1" class="edge">
<title>first&#45;&gt;select</title>
<path fill="none" stroke="#61768e" stroke-width="1.25" d="M213.65,-367C250.08,-367 297.15,-367 337.42,-367"/>
<polygon fill="#61768e" stroke="#61768e" stroke-width="1.25" points="337.66,-369.52 344.86,-367 337.66,-364.48 337.66,-369.52"/>
</g>
<!-- pa -->
<g id="node3" class="node">
<title>pa</title>
<path fill="#f1ecfc" stroke="#8270b0" stroke-width="1.35" d="M708.5,-378C708.5,-378 571.5,-378 571.5,-378 565.5,-378 559.5,-372 559.5,-366 559.5,-366 559.5,-332 559.5,-332 559.5,-326 565.5,-320 571.5,-320 571.5,-320 708.5,-320 708.5,-320 714.5,-320 720.5,-326 720.5,-332 720.5,-332 720.5,-366 720.5,-366 720.5,-372 714.5,-378 708.5,-378"/>
<text text-anchor="middle" x="640" y="-359.6" font-family="Noto Sans CJK SC" font-size="13.00">proprio_adapter</text>
<text text-anchor="middle" x="640" y="-345.6" font-family="Noto Sans CJK SC" font-size="13.00">61→512</text>
<text text-anchor="middle" x="640" y="-331.6" font-family="Noto Sans CJK SC" font-size="13.00">只有部署本体 / 历史状态</text>
</g>
<!-- select&#45;&gt;pa -->
<g id="edge2" class="edge">
<title>select&#45;&gt;pa</title>
<path fill="none" stroke="#61768e" stroke-width="1.25" d="M503.17,-360.43C519.01,-359.09 535.76,-357.68 551.89,-356.33"/>
<polygon fill="#61768e" stroke="#61768e" stroke-width="1.25" points="552.29,-358.82 559.25,-355.71 551.86,-353.8 552.29,-358.82"/>
</g>
<!-- actor -->
<g id="node9" class="node">
<title>actor</title>
<path fill="#e9f2fd" stroke="#5584b0" stroke-width="1.35" d="M922.5,-282C922.5,-282 812.5,-282 812.5,-282 806.5,-282 800.5,-276 800.5,-270 800.5,-270 800.5,-236 800.5,-236 800.5,-230 806.5,-224 812.5,-224 812.5,-224 922.5,-224 922.5,-224 928.5,-224 934.5,-230 934.5,-236 934.5,-236 934.5,-270 934.5,-270 934.5,-276 928.5,-282 922.5,-282"/>
<text text-anchor="middle" x="867.5" y="-263.6" font-family="Noto Sans CJK SC" font-size="13.00">纯视觉 / 本体 Actor</text>
<text text-anchor="middle" x="867.5" y="-249.6" font-family="Noto Sans CJK SC" font-size="13.00">M2 启用 belief16</text>
<text text-anchor="middle" x="867.5" y="-235.6" font-family="Noto Sans CJK SC" font-size="13.00">保持9维动作接口</text>
</g>
<!-- pa&#45;&gt;actor -->
<g id="edge3" class="edge">
<title>pa&#45;&gt;actor</title>
<path fill="none" stroke="#61768e" stroke-width="1.25" d="M709.27,-319.94C735.92,-308.59 766.52,-295.57 793.59,-284.04"/>
<polygon fill="#61768e" stroke="#61768e" stroke-width="1.25" points="794.76,-286.28 800.4,-281.14 792.79,-281.64 794.76,-286.28"/>
</g>
<!-- vision -->
<g id="node4" class="node">
<title>vision</title>
<path fill="#eaf5ec" stroke="#568362" stroke-width="1.35" d="M238.5,-318C238.5,-318 66.5,-318 66.5,-318 60.5,-318 54.5,-312 54.5,-306 54.5,-306 54.5,-272 54.5,-272 54.5,-266 60.5,-260 66.5,-260 66.5,-260 238.5,-260 238.5,-260 244.5,-260 250.5,-266 250.5,-272 250.5,-272 250.5,-306 250.5,-306 250.5,-312 244.5,-318 238.5,-318"/>
<text text-anchor="middle" x="152.5" y="-299.6" font-family="Noto Sans CJK SC" font-size="13.00">教师视觉分支</text>
<text text-anchor="middle" x="152.5" y="-285.6" font-family="Noto Sans CJK SC" font-size="13.00">共享 CNN + 两路 Transformer</text>
<text text-anchor="middle" x="152.5" y="-271.6" font-family="Noto Sans CJK SC" font-size="13.00">两路投影 + visual_adapter</text>
</g>
<!-- visualcopy -->
<g id="node5" class="node">
<title>visualcopy</title>
<path fill="#eaf5ec" stroke="#568362" stroke-width="1.35" d="M492,-318C492,-318 356,-318 356,-318 350,-318 344,-312 344,-306 344,-306 344,-272 344,-272 344,-266 350,-260 356,-260 356,-260 492,-260 492,-260 498,-260 504,-266 504,-272 504,-272 504,-306 504,-306 504,-312 498,-318 492,-318"/>
<text text-anchor="middle" x="424" y="-299.6" font-family="Noto Sans CJK SC" font-size="13.00">原样复制全部视觉权重</text>
<text text-anchor="middle" x="424" y="-285.6" font-family="Noto Sans CJK SC" font-size="13.00">保留已训练的 128→512</text>
<text text-anchor="middle" x="424" y="-271.6" font-family="Noto Sans CJK SC" font-size="13.00">visual_adapter</text>
</g>
<!-- vision&#45;&gt;visualcopy -->
<g id="edge4" class="edge">
<title>vision&#45;&gt;visualcopy</title>
<path fill="none" stroke="#61768e" stroke-width="1.25" d="M250.8,-289C278.89,-289 309.35,-289 336.72,-289"/>
<polygon fill="#61768e" stroke="#61768e" stroke-width="1.25" points="336.78,-291.52 343.98,-289 336.78,-286.48 336.78,-291.52"/>
</g>
<!-- visualcopy&#45;&gt;actor -->
<g id="edge5" class="edge">
<title>visualcopy&#45;&gt;actor</title>
<path fill="none" stroke="#61768e" stroke-width="1.25" d="M504.19,-282.54C586.04,-275.87 712.81,-265.53 792.64,-259.02"/>
<polygon fill="#61768e" stroke="#61768e" stroke-width="1.25" points="793.25,-261.5 800.22,-258.4 792.84,-256.48 793.25,-261.5"/>
</g>
<!-- downstream -->
<g id="node6" class="node">
<title>downstream</title>
<path fill="#eaf5ec" stroke="#568362" stroke-width="1.35" d="M216,-240C216,-240 89,-240 89,-240 83,-240 77,-234 77,-228 77,-228 77,-194 77,-194 77,-188 83,-182 89,-182 89,-182 216,-182 216,-182 222,-182 228,-188 228,-194 228,-194 228,-228 228,-228 228,-234 222,-240 216,-240"/>
<text text-anchor="middle" x="152.5" y="-221.6" font-family="Noto Sans CJK SC" font-size="13.00">教师 Actor 下游与分布</text>
<text text-anchor="middle" x="152.5" y="-207.6" font-family="Noto Sans CJK SC" font-size="13.00">512→256→128→9</text>
<text text-anchor="middle" x="152.5" y="-193.6" font-family="Noto Sans CJK SC" font-size="13.00">log_std [9]</text>
</g>
<!-- headcopy -->
<g id="node7" class="node">
<title>headcopy</title>
<path fill="#eaf5ec" stroke="#568362" stroke-width="1.35" d="M476,-240C476,-240 372,-240 372,-240 366,-240 360,-234 360,-228 360,-228 360,-208 360,-208 360,-202 366,-196 372,-196 372,-196 476,-196 476,-196 482,-196 488,-202 488,-208 488,-208 488,-228 488,-228 488,-234 482,-240 476,-240"/>
<text text-anchor="middle" x="424" y="-221.6" font-family="Noto Sans CJK SC" font-size="13.00">原样复制下游 MLP</text>
<text text-anchor="middle" x="424" y="-207.6" font-family="Noto Sans CJK SC" font-size="13.00">和可学习 log_std</text>
</g>
<!-- downstream&#45;&gt;headcopy -->
<g id="edge6" class="edge">
<title>downstream&#45;&gt;headcopy</title>
<path fill="none" stroke="#61768e" stroke-width="1.25" d="M228.21,-212.94C266.91,-213.95 313.92,-215.17 352.06,-216.16"/>
<polygon fill="#61768e" stroke="#61768e" stroke-width="1.25" points="352.3,-218.68 359.56,-216.35 352.43,-213.65 352.3,-218.68"/>
</g>
<!-- headcopy&#45;&gt;actor -->
<g id="edge7" class="edge">
<title>headcopy&#45;&gt;actor</title>
<path fill="none" stroke="#61768e" stroke-width="1.25" d="M488.15,-230.84C516.2,-236.55 543,-242 543,-242 543,-242 697.46,-247.25 792.92,-250.5"/>
<polygon fill="#61768e" stroke="#61768e" stroke-width="1.25" points="792.97,-253.02 800.25,-250.75 793.14,-247.98 792.97,-253.02"/>
</g>
<!-- newbelief -->
<g id="node8" class="node">
<title>newbelief</title>
<path fill="#f1ecfc" stroke="#8270b0" stroke-width="1.35" d="M725,-232C725,-232 555,-232 555,-232 549,-232 543,-226 543,-220 543,-220 543,-186 543,-186 543,-180 549,-174 555,-174 555,-174 725,-174 725,-174 731,-174 737,-180 737,-186 737,-186 737,-220 737,-220 737,-226 731,-232 725,-232"/>
<text text-anchor="middle" x="640" y="-213.6" font-family="Noto Sans CJK SC" font-size="13.00">M2 新增 Actor belief16→512</text>
<text text-anchor="middle" x="640" y="-199.6" font-family="Noto Sans CJK SC" font-size="13.00">无 bias，权重0</text>
<text text-anchor="middle" x="640" y="-185.6" font-family="Noto Sans CJK SC" font-size="13.00">开始训练后可学习</text>
</g>
<!-- newbelief&#45;&gt;actor -->
<g id="edge8" class="edge">
<title>newbelief&#45;&gt;actor</title>
<path fill="none" stroke="#61768e" stroke-width="1.25" d="M737.29,-224.35C756.1,-228.52 775.53,-232.83 793.44,-236.8"/>
<polygon fill="#61768e" stroke="#61768e" stroke-width="1.25" points="792.91,-239.26 800.48,-238.36 794,-234.34 792.91,-239.26"/>
</g>
<!-- ppo -->
<g id="node13" class="node">
<title>ppo</title>
<path fill="#fff4df" stroke="#ba924b" stroke-width="1.35" d="M1255,-176C1255,-176 1097,-176 1097,-176 1091,-176 1085,-170 1085,-164 1085,-164 1085,-116 1085,-116 1085,-110 1091,-104 1097,-104 1097,-104 1255,-104 1255,-104 1261,-104 1267,-110 1267,-116 1267,-116 1267,-164 1267,-164 1267,-170 1261,-176 1255,-176"/>
<text text-anchor="middle" x="1176" y="-157.6" font-family="Noto Sans CJK SC" font-size="13.00">完整 rollout → GAE → PPO</text>
<text text-anchor="middle" x="1176" y="-143.6" font-family="Noto Sans CJK SC" font-size="13.00">更新 Actor 和 Critic</text>
<text text-anchor="middle" x="1176" y="-129.6" font-family="Noto Sans CJK SC" font-size="13.00">冻结原低层控制策略</text>
<text text-anchor="middle" x="1176" y="-115.6" font-family="Noto Sans CJK SC" font-size="13.00">保持原任务奖励 / 课程</text>
</g>
<!-- actor&#45;&gt;ppo -->
<g id="edge13" class="edge">
<title>actor&#45;&gt;ppo</title>
<path fill="none" stroke="#61768e" stroke-width="1.25" d="M934.63,-228.62C976.48,-213.19 1031.31,-192.98 1078.03,-175.75"/>
<polygon fill="#61768e" stroke="#61768e" stroke-width="1.25" points="1078.98,-178.09 1084.86,-173.23 1077.23,-173.36 1078.98,-178.09"/>
<text text-anchor="middle" x="1026" y="-209" font-family="Noto Sans CJK SC" font-size="10.00">动作 / log_prob</text>
</g>
<!-- valueold -->
<g id="node10" class="node">
<title>valueold</title>
<path fill="#eaf5ec" stroke="#568362" stroke-width="1.35" d="M226,-162C226,-162 79,-162 79,-162 73,-162 67,-156 67,-150 67,-150 67,-116 67,-116 67,-110 73,-104 79,-104 79,-104 226,-104 226,-104 232,-104 238,-110 238,-116 238,-116 238,-150 238,-150 238,-156 232,-162 226,-162"/>
<text text-anchor="middle" x="152.5" y="-143.6" font-family="Noto Sans CJK SC" font-size="13.00">原教师 Critic 全部参数</text>
<text text-anchor="middle" x="152.5" y="-129.6" font-family="Noto Sans CJK SC" font-size="13.00">独立特征编码器 + GFM</text>
<text text-anchor="middle" x="152.5" y="-115.6" font-family="Noto Sans CJK SC" font-size="13.00">206→512→256→128→1</text>
</g>
<!-- valuecopy -->
<g id="node11" class="node">
<title>valuecopy</title>
<path fill="#f1ecfc" stroke="#8270b0" stroke-width="1.35" d="M500,-176C500,-176 348,-176 348,-176 342,-176 336,-170 336,-164 336,-164 336,-116 336,-116 336,-110 342,-104 348,-104 348,-104 500,-104 500,-104 506,-104 512,-110 512,-116 512,-116 512,-164 512,-164 512,-170 506,-176 500,-176"/>
<text text-anchor="middle" x="424" y="-157.6" font-family="Noto Sans CJK SC" font-size="13.00">保留 Critic 的全部原参数</text>
<text text-anchor="middle" x="424" y="-143.6" font-family="Noto Sans CJK SC" font-size="13.00">M1：新增 task5→512</text>
<text text-anchor="middle" x="424" y="-129.6" font-family="Noto Sans CJK SC" font-size="13.00">M2：再加 belief16→512</text>
<text text-anchor="middle" x="424" y="-115.6" font-family="Noto Sans CJK SC" font-size="13.00">新 adapter 无 bias、权重0</text>
</g>
<!-- valueold&#45;&gt;valuecopy -->
<g id="edge9" class="edge">
<title>valueold&#45;&gt;valuecopy</title>
<path fill="none" stroke="#61768e" stroke-width="1.25" d="M238.03,-135.2C266.78,-135.94 299.08,-136.78 328.55,-137.55"/>
<polygon fill="#61768e" stroke="#61768e" stroke-width="1.25" points="328.72,-140.07 335.98,-137.74 328.85,-135.03 328.72,-140.07"/>
</g>
<!-- critic -->
<g id="node12" class="node">
<title>critic</title>
<path fill="#fcedec" stroke="#b47470" stroke-width="1.35" d="M955,-169C955,-169 780,-169 780,-169 774,-169 768,-163 768,-157 768,-157 768,-123 768,-123 768,-117 774,-111 780,-111 780,-111 955,-111 955,-111 961,-111 967,-117 967,-123 967,-123 967,-157 967,-157 967,-163 961,-169 955,-169"/>
<text text-anchor="middle" x="867.5" y="-150.6" font-family="Noto Sans CJK SC" font-size="13.00">独立特权 Critic</text>
<text text-anchor="middle" x="867.5" y="-136.6" font-family="Noto Sans CJK SC" font-size="13.00">priv1276 + task5? + belief16?</text>
<text text-anchor="middle" x="867.5" y="-122.6" font-family="Noto Sans CJK SC" font-size="13.00">GFM 仅在 Critic 内运行</text>
</g>
<!-- valuecopy&#45;&gt;critic -->
<g id="edge10" class="edge">
<title>valuecopy&#45;&gt;critic</title>
<path fill="none" stroke="#61768e" stroke-width="1.25" d="M512.23,-140C583.56,-140 684.68,-140 760.64,-140"/>
<polygon fill="#61768e" stroke="#61768e" stroke-width="1.25" points="760.71,-142.52 767.91,-140 760.71,-137.48 760.71,-142.52"/>
</g>
<!-- critic&#45;&gt;ppo -->
<g id="edge14" class="edge">
<title>critic&#45;&gt;ppo</title>
<path fill="none" stroke="#61768e" stroke-width="1.25" d="M967.17,-140C1002.46,-140 1042.19,-140 1077.39,-140"/>
<polygon fill="#61768e" stroke="#61768e" stroke-width="1.25" points="1077.63,-142.52 1084.83,-140 1077.63,-137.48 1077.63,-142.52"/>
<text text-anchor="middle" x="1026" y="-143" font-family="Noto Sans CJK SC" font-size="10.00">V / value loss</text>
</g>
<!-- evaluate -->
<g id="node14" class="node">
<title>evaluate</title>
<path fill="#f0f2f4" stroke="#85909b" stroke-width="1.35" d="M1484,-169C1484,-169 1310,-169 1310,-169 1304,-169 1298,-163 1298,-157 1298,-157 1298,-123 1298,-123 1298,-117 1304,-111 1310,-111 1310,-111 1484,-111 1484,-111 1490,-111 1496,-117 1496,-123 1496,-123 1496,-157 1496,-157 1496,-163 1490,-169 1484,-169"/>
<text text-anchor="middle" x="1397" y="-150.6" font-family="Noto Sans CJK SC" font-size="13.00">定期独立评估</text>
<text text-anchor="middle" x="1397" y="-136.6" font-family="Noto Sans CJK SC" font-size="13.00">Actor 取均值动作</text>
<text text-anchor="middle" x="1397" y="-122.6" font-family="Noto Sans CJK SC" font-size="13.00">按任务成功率选择 checkpoint</text>
</g>
<!-- ppo&#45;&gt;evaluate -->
<g id="edge11" class="edge">
<title>ppo&#45;&gt;evaluate</title>
<path fill="none" stroke="#61768e" stroke-width="1.25" d="M1267.02,-140C1274.79,-140 1282.69,-140 1290.57,-140"/>
<polygon fill="#61768e" stroke="#61768e" stroke-width="1.25" points="1290.59,-142.52 1297.79,-140 1290.59,-137.48 1290.59,-142.52"/>
</g>
<!-- export -->
<g id="node15" class="node">
<title>export</title>
<path fill="#e9f2fd" stroke="#5584b0" stroke-width="1.35" d="M1746,-176C1746,-176 1539,-176 1539,-176 1533,-176 1527,-170 1527,-164 1527,-164 1527,-116 1527,-116 1527,-110 1533,-104 1539,-104 1539,-104 1746,-104 1746,-104 1752,-104 1758,-110 1758,-116 1758,-116 1758,-164 1758,-164 1758,-170 1752,-176 1746,-176"/>
<text text-anchor="middle" x="1642.5" y="-157.6" font-family="Noto Sans CJK SC" font-size="13.00">部署导出 v2</text>
<text text-anchor="middle" x="1642.5" y="-143.6" font-family="Noto Sans CJK SC" font-size="13.00">纯 Actor + 61维归一化统计</text>
<text text-anchor="middle" x="1642.5" y="-129.6" font-family="Noto Sans CJK SC" font-size="13.00">feature flags + belief约定</text>
<text text-anchor="middle" x="1642.5" y="-115.6" font-family="Noto Sans CJK SC" font-size="13.00">M2：图像62208 + raw61 + belief16</text>
</g>
<!-- evaluate&#45;&gt;export -->
<g id="edge12" class="edge">
<title>evaluate&#45;&gt;export</title>
<path fill="none" stroke="#61768e" stroke-width="1.25" d="M1496.34,-140C1503.86,-140 1511.51,-140 1519.16,-140"/>
<polygon fill="#61768e" stroke="#61768e" stroke-width="1.25" points="1519.61,-142.52 1526.81,-140 1519.61,-137.48 1519.61,-142.52"/>
</g>
<!-- stats -->
<g id="node16" class="node">
<title>stats</title>
<path fill="#f0f2f4" stroke="#85909b" stroke-width="1.35" d="M293,-72C293,-72 12,-72 12,-72 6,-72 0,-66 0,-60 0,-60 0,-12 0,-12 0,-6 6,0 12,0 12,0 293,0 293,0 299,0 305,-6 305,-12 305,-12 305,-60 305,-60 305,-66 299,-72 293,-72"/>
<text text-anchor="middle" x="152.5" y="-53.6" font-family="Noto Sans CJK SC" font-size="13.00">迁移与恢复边界</text>
<text text-anchor="middle" x="152.5" y="-39.6" font-family="Noto Sans CJK SC" font-size="13.00">初始化：恢复原归一化统计，新建 PPO optimizer</text>
<text text-anchor="middle" x="152.5" y="-25.6" font-family="Noto Sans CJK SC" font-size="13.00">恢复训练：严格读取相同模式的 v2 checkpoint</text>
<text text-anchor="middle" x="152.5" y="-11.6" font-family="Noto Sans CJK SC" font-size="13.00">部署输入无需1276维 GT，也无需任务记忆5</text>
</g>
<!-- stats&#45;&gt;ppo -->
<g id="edge15" class="edge">
<title>stats&#45;&gt;ppo</title>
<path fill="none" stroke="#61768e" stroke-width="1.25" stroke-dasharray="5,2" d="M305.19,-36C366.47,-36 423,-36 423,-36 423,-36 423,-36 868.5,-36 868.5,-36 987.98,-76.54 1077.75,-107"/>
<polygon fill="#61768e" stroke="#61768e" stroke-width="1.25" points="1077.07,-109.43 1084.7,-109.36 1078.69,-104.66 1077.07,-109.43"/>
<text text-anchor="middle" x="640" y="-39" font-family="Noto Sans CJK SC" font-size="10.00">冻结原输入 / 价值统计</text>
</g>
</g>
</svg>
